<svg width="934" height="852" viewBox="0 0 934 852" fill="none" xmlns="http://www.w3.org/2000/svg">
<mask id="mask0" style="mask-type:alpha" maskUnits="userSpaceOnUse" x="243" y="246" width="506" height="606">
<path d="M442.728 246.502L436.049 259.28C432.865 265.372 430.873 272.016 430.18 278.855L427.228 308.002L260.124 473.401C242.834 490.515 238.311 516.715 248.862 538.635L366.728 783.502C338.079 792.028 318.913 801.194 309.228 811.002C299.544 820.809 296.711 833.922 300.728 850.339L419.228 850.502L431.228 813.002L435.299 792.841C435.955 789.593 439.12 787.491 442.368 788.147C444.337 788.545 445.976 789.901 446.735 791.76L470.728 850.502H493.728L474.728 762.502C468.805 747.391 463.805 735.891 459.728 728.002C455.651 720.112 449.995 710.991 442.76 700.638L345.228 513.502L485.228 334.002L614.728 793.502C587.175 798.405 569.675 805.072 562.228 813.502C554.782 821.932 553.282 834.598 557.728 851.502H698.728L695.647 793.563C695.559 791.909 696.829 790.496 698.483 790.408C699.749 790.341 700.92 791.076 701.41 792.245L726.228 851.502H748.228C735.325 806.135 726.992 777.135 723.228 764.502C717.303 744.609 694.728 714.502 698.728 728.002C698.728 728.002 682.314 666.647 652.228 587.002C642.492 561.226 625.602 530.83 614.867 503.52C596.174 455.965 573.501 398.288 546.849 330.487C542.047 318.271 543.976 295.992 535.228 273.737C532.736 267.398 525.736 258.652 514.228 247.502L442.728 246.502Z" fill="white"/>
</mask>
<g mask="url(#mask0)">
<path d="M442.728 246.502L436.049 259.28C432.865 265.372 430.873 272.016 430.18 278.855L427.228 308.002L260.124 473.401C242.834 490.515 238.311 516.715 248.862 538.635L366.728 783.502C338.079 792.028 318.913 801.194 309.228 811.002C299.544 820.809 296.711 833.922 300.728 850.339L419.228 850.502L431.228 813.002L435.299 792.841C435.955 789.593 439.12 787.491 442.368 788.147C444.337 788.545 445.976 789.901 446.735 791.76L470.728 850.502H493.728L474.728 762.502C468.805 747.391 463.805 735.891 459.728 728.002C455.651 720.112 449.995 710.991 442.76 700.638L345.228 513.502L485.228 334.002L614.728 793.502C587.175 798.405 569.675 805.072 562.228 813.502C554.782 821.932 553.282 834.598 557.728 851.502H698.728L695.647 793.563C695.559 791.909 696.829 790.496 698.483 790.408C699.749 790.341 700.92 791.076 701.41 792.245L726.228 851.502H748.228C735.325 806.135 726.992 777.135 723.228 764.502C717.303 744.609 694.728 714.502 698.728 728.002C698.728 728.002 682.314 666.647 652.228 587.002C642.492 561.226 625.602 530.83 614.867 503.52C596.174 455.965 573.501 398.288 546.849 330.487C542.047 318.271 543.976 295.992 535.228 273.737C532.736 267.398 525.736 258.652 514.228 247.502L442.728 246.502Z" fill="#FF567B"/>
<path fill-rule="evenodd" clip-rule="evenodd" d="M334.729 727.502L464.229 695.002L523.229 858.502H288.229L334.729 727.502Z" fill="#245852"/>
<path fill-rule="evenodd" clip-rule="evenodd" d="M580.729 714.502L708.729 726.502L777.229 886.502H542.229L580.729 714.502Z" fill="#245852"/>
</g>
<mask id="mask1" style="mask-type:alpha" maskUnits="userSpaceOnUse" x="138" y="69" width="624" height="374">
<path d="M416.228 119.502L207.228 69.0017L138.228 276.002L231.228 282.002L265.728 161.502L427.228 184.002L438.228 246.559H514.228L522.228 168.502L676.228 420.502L748.228 442.502L761.228 420.502L705.228 260.002L548.728 113.502C518.712 121.221 497.045 124.74 483.728 124.059C450.395 122.354 427.895 120.835 416.228 119.502Z" fill="white"/>
</mask>
<g mask="url(#mask1)">
<path d="M416.228 119.502L207.228 69.0017L138.228 276.002L231.228 282.002L265.728 161.502L427.228 184.002L438.228 246.559H514.228L522.228 168.502L676.228 420.502L748.228 442.502L761.228 420.502L705.228 260.002L548.728 113.502C518.712 121.221 497.045 124.74 483.728 124.059C450.395 122.354 427.895 120.835 416.228 119.502Z" fill="#FFE694"/>
<path d="M526.752 192.743C526.204 192.813 525.703 192.425 525.633 191.878C525.564 191.33 525.951 190.829 526.499 190.759L533.023 189.929C533.571 189.859 534.071 190.247 534.141 190.795C534.211 191.343 533.823 191.843 533.275 191.913L526.752 192.743ZM526.879 182.304C526.331 182.373 525.83 181.986 525.761 181.438C525.691 180.89 526.079 180.389 526.626 180.32L533.15 179.489C533.698 179.42 534.199 179.807 534.269 180.355C534.338 180.903 533.951 181.404 533.403 181.473L526.879 182.304ZM553.808 189.146C553.26 189.216 552.76 188.828 552.69 188.28C552.62 187.733 553.008 187.232 553.556 187.162L560.079 186.332C560.627 186.262 561.128 186.65 561.198 187.197C561.267 187.745 560.88 188.246 560.332 188.316L553.808 189.146ZM553.936 178.707C553.388 178.776 552.887 178.389 552.817 177.841C552.748 177.293 553.135 176.792 553.683 176.723L560.207 175.892C560.755 175.822 561.255 176.21 561.325 176.758C561.395 177.306 561.007 177.806 560.459 177.876L553.936 178.707ZM540.012 191.551C539.471 191.662 538.942 191.313 538.831 190.772C538.72 190.231 539.069 189.703 539.61 189.592L545.996 188.281C546.537 188.17 547.065 188.518 547.176 189.059C547.287 189.6 546.939 190.129 546.398 190.24L540.012 191.551ZM540.139 181.111C539.598 181.222 539.07 180.874 538.959 180.333C538.848 179.792 539.196 179.263 539.737 179.152L546.123 177.841C546.664 177.73 547.193 178.079 547.304 178.62C547.415 179.161 547.066 179.689 546.525 179.8L540.139 181.111ZM567.069 187.954C566.528 188.065 565.999 187.716 565.888 187.175C565.777 186.634 566.125 186.105 566.666 185.994L573.052 184.683C573.593 184.572 574.122 184.921 574.233 185.462C574.344 186.003 573.996 186.531 573.455 186.643L567.069 187.954ZM567.196 177.514C566.655 177.625 566.126 177.277 566.015 176.736C565.904 176.195 566.253 175.666 566.794 175.555L573.18 174.244C573.721 174.133 574.249 174.481 574.36 175.022C574.471 175.563 574.123 176.092 573.582 176.203L567.196 177.514ZM580.865 185.549C580.317 185.619 579.816 185.231 579.747 184.683C579.677 184.135 580.064 183.635 580.612 183.565L587.136 182.735C587.684 182.665 588.185 183.052 588.254 183.6C588.324 184.148 587.936 184.649 587.389 184.719L580.865 185.549ZM580.992 175.109C580.444 175.179 579.944 174.792 579.874 174.244C579.804 173.696 580.192 173.195 580.74 173.125L587.264 172.295C587.811 172.225 588.312 172.613 588.382 173.161C588.452 173.709 588.064 174.209 587.516 174.279L580.992 175.109ZM594.125 184.356C593.584 184.467 593.056 184.119 592.944 183.578C592.833 183.037 593.182 182.508 593.723 182.397L600.109 181.086C600.65 180.975 601.179 181.324 601.29 181.865C601.401 182.406 601.052 182.934 600.511 183.045L594.125 184.356ZM594.253 173.917C593.712 174.028 593.183 173.679 593.072 173.138C592.961 172.597 593.309 172.069 593.85 171.958L600.236 170.647C600.777 170.536 601.306 170.884 601.417 171.425C601.528 171.966 601.18 172.495 600.639 172.606L594.253 173.917ZM527.006 171.864C526.459 171.934 525.958 171.546 525.888 170.999C525.818 170.451 526.206 169.95 526.754 169.88L533.278 169.05C533.826 168.98 534.326 169.368 534.396 169.916C534.466 170.463 534.078 170.964 533.53 171.034L527.006 171.864ZM554.063 168.267C553.515 168.337 553.014 167.949 552.945 167.401C552.875 166.853 553.263 166.353 553.81 166.283L560.334 165.453C560.882 165.383 561.383 165.771 561.453 166.318C561.522 166.866 561.135 167.367 560.587 167.437L554.063 168.267ZM540.267 170.672C539.726 170.783 539.197 170.434 539.086 169.893C538.975 169.352 539.324 168.824 539.865 168.713L546.251 167.402C546.792 167.29 547.32 167.639 547.431 168.18C547.542 168.721 547.194 169.25 546.653 169.361L540.267 170.672ZM567.323 167.075C566.782 167.186 566.254 166.837 566.143 166.296C566.032 165.755 566.38 165.226 566.921 165.115L573.307 163.804C573.848 163.693 574.377 164.042 574.488 164.583C574.599 165.124 574.25 165.652 573.709 165.763L567.323 167.075ZM581.12 164.67C580.572 164.74 580.071 164.352 580.001 163.804C579.932 163.256 580.319 162.756 580.867 162.686L587.391 161.856C587.939 161.786 588.439 162.173 588.509 162.721C588.579 163.269 588.191 163.77 587.643 163.84L581.12 164.67ZM594.38 163.477C593.839 163.588 593.31 163.24 593.199 162.699C593.088 162.158 593.437 161.629 593.978 161.518L600.364 160.207C600.905 160.096 601.433 160.445 601.544 160.986C601.655 161.527 601.307 162.055 600.766 162.166L594.38 163.477ZM527.134 161.425C526.586 161.494 526.085 161.107 526.016 160.559C525.946 160.011 526.333 159.51 526.881 159.441L533.405 158.61C533.953 158.541 534.454 158.928 534.523 159.476C534.593 160.024 534.205 160.525 533.658 160.594L527.134 161.425ZM554.19 157.828C553.643 157.897 553.142 157.51 553.072 156.962C553.002 156.414 553.39 155.913 553.938 155.844L560.462 155.013C561.01 154.943 561.51 155.331 561.58 155.879C561.65 156.427 561.262 156.927 560.714 156.997L554.19 157.828ZM540.394 160.232C539.853 160.343 539.325 159.995 539.213 159.454C539.102 158.913 539.451 158.384 539.992 158.273L546.378 156.962C546.919 156.851 547.448 157.199 547.559 157.74C547.67 158.281 547.321 158.81 546.78 158.921L540.394 160.232ZM567.451 156.635C566.91 156.746 566.381 156.398 566.27 155.857C566.159 155.316 566.508 154.787 567.049 154.676L573.435 153.365C573.976 153.254 574.504 153.602 574.615 154.143C574.726 154.684 574.378 155.213 573.837 155.324L567.451 156.635ZM581.247 154.23C580.699 154.3 580.198 153.913 580.129 153.365C580.059 152.817 580.447 152.316 580.995 152.246L587.518 151.416C588.066 151.346 588.567 151.734 588.637 152.282C588.706 152.83 588.319 153.33 587.771 153.4L581.247 154.23ZM594.507 153.038C593.966 153.149 593.438 152.8 593.327 152.259C593.216 151.718 593.564 151.19 594.105 151.079L600.491 149.768C601.032 149.657 601.561 150.005 601.672 150.546C601.783 151.087 601.434 151.616 600.893 151.727L594.507 153.038ZM527.261 150.985C526.713 151.055 526.213 150.667 526.143 150.119C526.073 149.572 526.461 149.071 527.009 149.001L533.533 148.171C534.08 148.101 534.581 148.489 534.651 149.037C534.721 149.584 534.333 150.085 533.785 150.155L527.261 150.985ZM554.318 147.388C553.77 147.458 553.269 147.07 553.2 146.522C553.13 145.974 553.517 145.474 554.065 145.404L560.589 144.574C561.137 144.504 561.638 144.891 561.707 145.439C561.777 145.987 561.39 146.488 560.842 146.558L554.318 147.388ZM540.522 149.793C539.981 149.904 539.452 149.555 539.341 149.014C539.23 148.473 539.578 147.945 540.119 147.833L546.505 146.522C547.046 146.411 547.575 146.76 547.686 147.301C547.797 147.842 547.449 148.371 546.908 148.482L540.522 149.793ZM567.578 146.195C567.037 146.307 566.509 145.958 566.397 145.417C566.286 144.876 566.635 144.347 567.176 144.236L573.562 142.925C574.103 142.814 574.632 143.163 574.743 143.704C574.854 144.245 574.505 144.773 573.964 144.884L567.578 146.195ZM581.374 143.791C580.827 143.861 580.326 143.473 580.256 142.925C580.186 142.377 580.574 141.877 581.122 141.807L587.646 140.976C588.194 140.907 588.694 141.294 588.764 141.842C588.834 142.39 588.446 142.891 587.898 142.96L581.374 143.791ZM594.635 142.598C594.094 142.709 593.565 142.361 593.454 141.82C593.343 141.279 593.692 140.75 594.233 140.639L600.619 139.328C601.16 139.217 601.688 139.566 601.799 140.107C601.91 140.648 601.562 141.176 601.021 141.287L594.635 142.598ZM527.389 140.546C526.841 140.615 526.34 140.228 526.27 139.68C526.201 139.132 526.588 138.631 527.136 138.562L533.66 137.731C534.208 137.662 534.708 138.049 534.778 138.597C534.848 139.145 534.46 139.646 533.912 139.715L527.389 140.546ZM554.445 136.948C553.897 137.018 553.397 136.631 553.327 136.083C553.257 135.535 553.645 135.034 554.193 134.964L560.717 134.134C561.264 134.064 561.765 134.452 561.835 135C561.905 135.548 561.517 136.048 560.969 136.118L554.445 136.948ZM540.649 139.353C540.108 139.464 539.579 139.116 539.468 138.575C539.357 138.034 539.706 137.505 540.247 137.394L546.633 136.083C547.174 135.972 547.702 136.32 547.813 136.861C547.924 137.402 547.576 137.931 547.035 138.042L540.649 139.353ZM567.706 135.756C567.165 135.867 566.636 135.518 566.525 134.977C566.414 134.436 566.762 133.908 567.303 133.797L573.689 132.486C574.23 132.375 574.759 132.723 574.87 133.264C574.981 133.805 574.633 134.334 574.092 134.445L567.706 135.756ZM581.502 133.351C580.954 133.421 580.453 133.033 580.384 132.486C580.314 131.938 580.701 131.437 581.249 131.367L587.773 130.537C588.321 130.467 588.822 130.855 588.891 131.403C588.961 131.951 588.574 132.451 588.026 132.521L581.502 133.351ZM594.762 132.159C594.221 132.27 593.693 131.921 593.582 131.38C593.47 130.839 593.819 130.311 594.36 130.2L600.746 128.889C601.287 128.778 601.816 129.126 601.927 129.667C602.038 130.208 601.689 130.737 601.148 130.848L594.762 132.159ZM554.573 126.509C554.025 126.579 553.524 126.191 553.454 125.643C553.385 125.095 553.772 124.595 554.32 124.525L560.844 123.695C561.392 123.625 561.892 124.012 561.962 124.56C562.032 125.108 561.644 125.609 561.096 125.679L554.573 126.509ZM540.776 128.914C540.235 129.025 539.707 128.676 539.596 128.135C539.485 127.594 539.833 127.066 540.374 126.954L546.76 125.643C547.301 125.532 547.83 125.881 547.941 126.422C548.052 126.963 547.703 127.491 547.162 127.603L540.776 128.914ZM567.833 125.316C567.292 125.427 566.763 125.079 566.652 124.538C566.541 123.997 566.89 123.468 567.431 123.357L573.817 122.046C574.358 121.935 574.886 122.284 574.997 122.825C575.109 123.366 574.76 123.894 574.219 124.005L567.833 125.316ZM530.778 129.691L530.525 127.707L530.778 129.691ZM530.778 129.691L527.516 130.106C526.193 130.275 525.941 128.291 527.264 128.122L530.525 127.707L533.787 127.292C535.11 127.123 535.363 129.107 534.04 129.276L530.778 129.691ZM584.891 122.497L584.639 120.513L584.891 122.497ZM584.639 120.513C585.961 120.344 586.214 122.328 584.891 122.497L581.629 122.912C580.307 123.08 580.054 121.096 581.377 120.928L584.639 120.513L587.901 120.097C589.223 119.929 589.476 121.913 588.153 122.081L584.891 122.497C583.569 122.665 583.316 120.681 584.639 120.513ZM594.89 121.719C594.349 121.83 593.82 121.482 593.709 120.941C593.598 120.4 593.946 119.871 594.487 119.76L600.873 118.449C601.414 118.338 601.943 118.687 602.054 119.228C602.165 119.769 601.817 120.297 601.276 120.408L594.89 121.719ZM440.893 136.466C440.871 135.914 441.301 135.449 441.852 135.427C442.404 135.405 442.869 135.835 442.891 136.387L443.15 142.958C443.171 143.51 442.742 143.975 442.19 143.997C441.638 144.019 441.173 143.589 441.151 143.037L440.893 136.466ZM451.281 137.502C451.26 136.951 451.689 136.486 452.241 136.464C452.793 136.442 453.258 136.872 453.28 137.424L453.538 143.995C453.56 144.547 453.13 145.012 452.578 145.034C452.027 145.055 451.562 144.626 451.54 144.074L451.281 137.502ZM442.118 163.733C442.096 163.181 442.526 162.716 443.078 162.694C443.63 162.672 444.095 163.102 444.116 163.654L444.375 170.225C444.397 170.777 443.967 171.242 443.415 171.264C442.863 171.286 442.398 170.856 442.377 170.304L442.118 163.733ZM452.507 164.77C452.485 164.218 452.915 163.753 453.466 163.731C454.018 163.709 454.483 164.139 454.505 164.691L454.764 171.262C454.785 171.814 454.356 172.279 453.804 172.301C453.252 172.323 452.787 171.893 452.765 171.341L452.507 164.77ZM440.925 149.779C440.861 149.231 441.255 148.735 441.803 148.671C442.352 148.608 442.848 149.001 442.912 149.55L443.661 156.025C443.725 156.574 443.331 157.07 442.783 157.134C442.234 157.197 441.738 156.804 441.674 156.255L440.925 149.779ZM451.314 150.816C451.25 150.268 451.643 149.771 452.192 149.708C452.741 149.644 453.237 150.038 453.3 150.586L454.05 157.062C454.113 157.611 453.72 158.107 453.171 158.171C452.623 158.234 452.126 157.841 452.063 157.292L451.314 150.816ZM442.15 177.047C442.087 176.498 442.48 176.002 443.029 175.938C443.577 175.875 444.073 176.268 444.137 176.817L444.886 183.293C444.95 183.841 444.557 184.337 444.008 184.401C443.459 184.464 442.963 184.071 442.9 183.523L442.15 177.047ZM452.539 178.083C452.475 177.535 452.869 177.039 453.417 176.975C453.966 176.912 454.462 177.305 454.526 177.853L455.275 184.329C455.339 184.878 454.945 185.374 454.397 185.438C453.848 185.501 453.352 185.108 453.288 184.559L452.539 178.083ZM443.343 191C443.321 190.448 443.751 189.983 444.303 189.961C444.855 189.94 445.32 190.369 445.342 190.921L445.6 197.493C445.622 198.045 445.192 198.509 444.64 198.531C444.089 198.553 443.624 198.123 443.602 197.571L443.343 191ZM453.732 192.037C453.71 191.485 454.14 191.02 454.692 190.998C455.244 190.976 455.709 191.406 455.73 191.958L455.989 198.529C456.011 199.081 455.581 199.546 455.029 199.568C454.477 199.59 454.012 199.16 453.991 198.608L453.732 192.037ZM443.376 204.314C443.312 203.765 443.705 203.269 444.254 203.205C444.803 203.142 445.299 203.535 445.362 204.084L446.112 210.56C446.175 211.108 445.782 211.605 445.233 211.668C444.685 211.732 444.188 211.338 444.125 210.79L443.376 204.314ZM453.764 205.351C453.701 204.802 454.094 204.306 454.643 204.242C455.191 204.179 455.687 204.572 455.751 205.121L456.5 211.597C456.564 212.145 456.171 212.641 455.622 212.705C455.073 212.768 454.577 212.375 454.514 211.826L453.764 205.351ZM461.67 138.539C461.648 137.987 462.078 137.522 462.63 137.501C463.182 137.479 463.647 137.909 463.668 138.461L463.927 145.032C463.949 145.584 463.519 146.049 462.967 146.07C462.415 146.092 461.95 145.662 461.929 145.111L461.67 138.539ZM462.895 165.806C462.874 165.254 463.303 164.789 463.855 164.768C464.407 164.746 464.872 165.176 464.894 165.728L465.152 172.299C465.174 172.851 464.744 173.316 464.192 173.338C463.641 173.359 463.176 172.93 463.154 172.378L462.895 165.806ZM461.702 151.853C461.639 151.304 462.032 150.808 462.581 150.745C463.129 150.681 463.626 151.074 463.689 151.623L464.438 158.099C464.502 158.648 464.109 159.144 463.56 159.207C463.011 159.271 462.515 158.878 462.452 158.329L461.702 151.853ZM462.928 179.12C462.864 178.572 463.257 178.075 463.806 178.012C464.355 177.948 464.851 178.342 464.914 178.89L465.664 185.366C465.727 185.915 465.334 186.411 464.785 186.475C464.237 186.538 463.741 186.145 463.677 185.596L462.928 179.12ZM464.121 193.074C464.099 192.522 464.529 192.057 465.081 192.035C465.632 192.013 466.097 192.443 466.119 192.995L466.378 199.566C466.399 200.118 465.97 200.583 465.418 200.605C464.866 200.627 464.401 200.197 464.379 199.645L464.121 193.074ZM464.153 206.387C464.089 205.839 464.483 205.342 465.031 205.279C465.58 205.216 466.076 205.609 466.14 206.157L466.889 212.633C466.953 213.182 466.559 213.678 466.011 213.742C465.462 213.805 464.966 213.412 464.902 212.863L464.153 206.387ZM472.059 139.576C472.037 139.024 472.467 138.559 473.019 138.537C473.57 138.516 474.035 138.945 474.057 139.497L474.316 146.069C474.337 146.621 473.908 147.086 473.356 147.107C472.804 147.129 472.339 146.699 472.317 146.147L472.059 139.576ZM473.284 166.843C473.262 166.291 473.692 165.826 474.244 165.805C474.796 165.783 475.261 166.213 475.282 166.764L475.541 173.336C475.563 173.888 475.133 174.353 474.581 174.374C474.029 174.396 473.564 173.966 473.543 173.415L473.284 166.843ZM472.091 152.89C472.027 152.341 472.421 151.845 472.969 151.781C473.518 151.718 474.014 152.111 474.078 152.66L474.827 159.136C474.891 159.684 474.497 160.181 473.949 160.244C473.4 160.308 472.904 159.914 472.84 159.366L472.091 152.89ZM473.316 180.157C473.253 179.608 473.646 179.112 474.195 179.049C474.743 178.985 475.24 179.378 475.303 179.927L476.052 186.403C476.116 186.952 475.723 187.448 475.174 187.511C474.625 187.575 474.129 187.182 474.066 186.633L473.316 180.157ZM474.509 194.11C474.488 193.558 474.917 193.093 475.469 193.072C476.021 193.05 476.486 193.48 476.508 194.032L476.766 200.603C476.788 201.155 476.358 201.62 475.807 201.642C475.255 201.663 474.79 201.234 474.768 200.682L474.509 194.11ZM474.542 207.424C474.478 206.875 474.871 206.379 475.42 206.316C475.969 206.252 476.465 206.646 476.528 207.194L477.278 213.67C477.341 214.219 476.948 214.715 476.399 214.778C475.851 214.842 475.355 214.449 475.291 213.9L474.542 207.424ZM482.447 140.613C482.426 140.061 482.855 139.596 483.407 139.574C483.959 139.552 484.424 139.982 484.446 140.534L484.704 147.106C484.726 147.657 484.296 148.122 483.745 148.144C483.193 148.166 482.728 147.736 482.706 147.184L482.447 140.613ZM483.673 167.88C483.651 167.328 484.081 166.863 484.633 166.841C485.184 166.82 485.649 167.249 485.671 167.801L485.93 174.373C485.951 174.925 485.522 175.389 484.97 175.411C484.418 175.433 483.953 175.003 483.931 174.451L483.673 167.88ZM482.48 153.927C482.416 153.378 482.809 152.882 483.358 152.818C483.907 152.755 484.403 153.148 484.466 153.697L485.216 160.173C485.279 160.721 484.886 161.217 484.337 161.281C483.789 161.344 483.293 160.951 483.229 160.403L482.48 153.927ZM483.705 181.194C483.641 180.645 484.035 180.149 484.583 180.085C485.132 180.022 485.628 180.415 485.692 180.964L486.441 187.44C486.505 187.988 486.111 188.485 485.563 188.548C485.014 188.612 484.518 188.218 484.454 187.67L483.705 181.194ZM484.898 195.147C484.876 194.595 485.306 194.13 485.858 194.109C486.41 194.087 486.875 194.517 486.896 195.068L487.155 201.64C487.177 202.192 486.747 202.657 486.195 202.678C485.643 202.7 485.178 202.27 485.157 201.718L484.898 195.147ZM484.93 208.461C484.867 207.912 485.26 207.416 485.809 207.353C486.357 207.289 486.854 207.682 486.917 208.231L487.666 214.707C487.73 215.256 487.337 215.752 486.788 215.815C486.239 215.879 485.743 215.486 485.68 214.937L484.93 208.461ZM492.836 141.65C492.814 141.098 493.244 140.633 493.796 140.611C494.348 140.589 494.813 141.019 494.834 141.571L495.093 148.142C495.115 148.694 494.685 149.159 494.133 149.181C493.581 149.203 493.116 148.773 493.095 148.221L492.836 141.65ZM494.061 168.917C494.04 168.365 494.469 167.9 495.021 167.878C495.573 167.856 496.038 168.286 496.06 168.838L496.318 175.409C496.34 175.961 495.91 176.426 495.359 176.448C494.807 176.47 494.342 176.04 494.32 175.488L494.061 168.917ZM492.868 154.963C492.805 154.415 493.198 153.919 493.747 153.855C494.295 153.792 494.792 154.185 494.855 154.733L495.605 161.209C495.668 161.758 495.275 162.254 494.726 162.318C494.177 162.381 493.681 161.988 493.618 161.439L492.868 154.963ZM494.094 182.231C494.03 181.682 494.423 181.186 494.972 181.122C495.521 181.059 496.017 181.452 496.08 182.001L496.83 188.477C496.893 189.025 496.5 189.521 495.951 189.585C495.403 189.648 494.907 189.255 494.843 188.707L494.094 182.231ZM495.287 196.184C495.265 195.632 495.695 195.167 496.247 195.145C496.798 195.124 497.263 195.553 497.285 196.105L497.544 202.677C497.566 203.228 497.136 203.693 496.584 203.715C496.032 203.737 495.567 203.307 495.545 202.755L495.287 196.184ZM495.319 209.498C495.256 208.949 495.649 208.453 496.197 208.389C496.746 208.326 497.242 208.719 497.306 209.268L498.055 215.744C498.119 216.292 497.725 216.789 497.177 216.852C496.628 216.916 496.132 216.522 496.068 215.974L495.319 209.498ZM504.45 169.954C504.428 169.402 504.858 168.937 505.41 168.915C505.962 168.893 506.427 169.323 506.449 169.875L506.707 176.446C506.729 176.998 506.299 177.463 505.747 177.485C505.195 177.506 504.73 177.077 504.709 176.525L504.45 169.954ZM503.257 156C503.194 155.452 503.587 154.955 504.135 154.892C504.684 154.828 505.18 155.222 505.244 155.77L505.993 162.246C506.057 162.795 505.663 163.291 505.115 163.355C504.566 163.418 504.07 163.025 504.006 162.476L503.257 156ZM504.482 183.267C504.419 182.719 504.812 182.222 505.361 182.159C505.909 182.095 506.406 182.489 506.469 183.037L507.219 189.513C507.282 190.062 506.889 190.558 506.34 190.622C505.792 190.685 505.295 190.292 505.232 189.743L504.482 183.267ZM503.354 145.972L505.353 145.893L503.354 145.972ZM503.354 145.972L503.225 142.686C503.172 141.354 505.171 141.275 505.223 142.608L505.353 145.893L505.482 149.179C505.534 150.511 503.536 150.59 503.483 149.258L503.354 145.972ZM505.805 200.506L507.803 200.428L505.805 200.506ZM507.803 200.428C507.856 201.76 505.857 201.839 505.805 200.506L505.675 197.221C505.623 195.888 507.621 195.81 507.674 197.142L507.803 200.428L507.933 203.713C507.985 205.046 505.986 205.124 505.934 203.792L505.805 200.506C505.752 199.174 507.751 199.095 507.803 200.428ZM505.708 210.534C505.644 209.986 506.038 209.49 506.586 209.426C507.135 209.363 507.631 209.756 507.694 210.305L508.444 216.781C508.507 217.329 508.114 217.825 507.565 217.889C507.017 217.952 506.521 217.559 506.457 217.01L505.708 210.534ZM580.178 234.484C579.867 234.028 579.985 233.406 580.441 233.095C580.898 232.784 581.52 232.902 581.831 233.359L585.532 238.795C585.843 239.251 585.725 239.873 585.269 240.184C584.812 240.495 584.19 240.377 583.879 239.92L580.178 234.484ZM589.537 229.859C589.226 229.402 589.344 228.78 589.801 228.469C590.257 228.158 590.88 228.276 591.19 228.733L594.892 234.169C595.203 234.625 595.085 235.247 594.628 235.558C594.172 235.869 593.55 235.751 593.239 235.294L589.537 229.859ZM595.666 256.959C595.355 256.503 595.473 255.88 595.93 255.57C596.386 255.259 597.008 255.377 597.319 255.833L601.021 261.269C601.332 261.726 601.214 262.348 600.757 262.658C600.301 262.969 599.679 262.851 599.368 262.395L595.666 256.959ZM605.026 252.333C604.715 251.877 604.833 251.255 605.289 250.944C605.746 250.633 606.368 250.751 606.679 251.207L610.381 256.643C610.691 257.1 610.573 257.722 610.117 258.033C609.66 258.343 609.038 258.225 608.727 257.769L605.026 252.333ZM587.26 245.758C586.916 245.326 586.986 244.697 587.418 244.353C587.85 244.008 588.479 244.079 588.823 244.51L592.891 249.605C593.235 250.037 593.165 250.666 592.733 251.01C592.301 251.355 591.672 251.284 591.328 250.853L587.26 245.758ZM596.62 241.132C596.275 240.701 596.346 240.071 596.778 239.727C597.209 239.382 597.838 239.453 598.183 239.884L602.25 244.979C602.595 245.411 602.524 246.04 602.093 246.385C601.661 246.729 601.032 246.659 600.687 246.227L596.62 241.132ZM602.749 268.233C602.404 267.801 602.475 267.172 602.907 266.827C603.338 266.483 603.967 266.553 604.312 266.985L608.379 272.08C608.724 272.511 608.653 273.14 608.222 273.485C607.79 273.83 607.161 273.759 606.816 273.327L602.749 268.233ZM612.108 263.607C611.764 263.175 611.834 262.546 612.266 262.201C612.698 261.857 613.327 261.927 613.671 262.359L617.739 267.454C618.083 267.885 618.013 268.515 617.581 268.859C617.15 269.204 616.52 269.133 616.176 268.702L612.108 263.607ZM611.155 279.434C610.844 278.977 610.962 278.355 611.419 278.044C611.875 277.733 612.497 277.851 612.808 278.308L616.51 283.744C616.82 284.2 616.702 284.822 616.246 285.133C615.789 285.444 615.167 285.326 614.856 284.869L611.155 279.434ZM620.514 274.808C620.203 274.351 620.322 273.729 620.778 273.418C621.235 273.107 621.857 273.225 622.167 273.682L625.869 279.118C626.18 279.574 626.062 280.196 625.605 280.507C625.149 280.818 624.527 280.7 624.216 280.243L620.514 274.808ZM618.237 290.707C617.893 290.276 617.963 289.646 618.395 289.302C618.827 288.957 619.456 289.028 619.8 289.459L623.868 294.554C624.212 294.986 624.142 295.615 623.71 295.96C623.279 296.304 622.649 296.234 622.305 295.802L618.237 290.707ZM627.597 286.081C627.252 285.65 627.323 285.02 627.755 284.676C628.186 284.331 628.815 284.402 629.16 284.833L633.227 289.928C633.572 290.36 633.501 290.989 633.07 291.334C632.638 291.678 632.009 291.608 631.664 291.176L627.597 286.081ZM598.897 225.233C598.586 224.776 598.704 224.154 599.16 223.843C599.617 223.532 600.239 223.65 600.55 224.107L604.252 229.543C604.562 229.999 604.444 230.621 603.988 230.932C603.531 231.243 602.909 231.125 602.598 230.668L598.897 225.233ZM614.385 247.707C614.074 247.251 614.193 246.629 614.649 246.318C615.106 246.007 615.728 246.125 616.038 246.581L619.74 252.017C620.051 252.474 619.933 253.096 619.476 253.407C619.02 253.718 618.398 253.599 618.087 253.143L614.385 247.707ZM605.979 236.506C605.635 236.075 605.705 235.445 606.137 235.101C606.569 234.756 607.198 234.827 607.542 235.258L611.61 240.353C611.954 240.785 611.884 241.414 611.452 241.759C611.021 242.103 610.391 242.033 610.047 241.601L605.979 236.506ZM621.468 258.981C621.123 258.549 621.194 257.92 621.626 257.575C622.057 257.231 622.686 257.301 623.031 257.733L627.098 262.828C627.443 263.259 627.372 263.889 626.941 264.233C626.509 264.578 625.88 264.507 625.535 264.076L621.468 258.981ZM629.874 270.182C629.563 269.725 629.681 269.103 630.138 268.792C630.594 268.481 631.216 268.599 631.527 269.056L635.229 274.492C635.539 274.948 635.421 275.57 634.965 275.881C634.508 276.192 633.886 276.074 633.576 275.617L629.874 270.182ZM636.957 281.455C636.612 281.024 636.683 280.394 637.114 280.05C637.546 279.705 638.175 279.776 638.52 280.208L642.587 285.302C642.931 285.734 642.861 286.363 642.429 286.708C641.998 287.052 641.368 286.982 641.024 286.55L636.957 281.455ZM608.256 220.607C607.945 220.15 608.064 219.528 608.52 219.217C608.977 218.906 609.599 219.024 609.909 219.481L613.611 224.917C613.922 225.373 613.804 225.995 613.347 226.306C612.891 226.617 612.269 226.499 611.958 226.042L608.256 220.607ZM623.745 243.081C623.434 242.625 623.552 242.003 624.009 241.692C624.465 241.381 625.087 241.499 625.398 241.956L629.1 247.391C629.41 247.848 629.292 248.47 628.836 248.781C628.379 249.092 627.757 248.974 627.446 248.517L623.745 243.081ZM615.339 231.88C614.994 231.449 615.065 230.819 615.497 230.475C615.928 230.13 616.557 230.201 616.902 230.633L620.969 235.727C621.314 236.159 621.243 236.788 620.812 237.133C620.38 237.477 619.751 237.407 619.406 236.975L615.339 231.88ZM630.827 254.355C630.483 253.923 630.554 253.294 630.985 252.949C631.417 252.605 632.046 252.675 632.391 253.107L636.458 258.202C636.802 258.633 636.732 259.263 636.3 259.607C635.869 259.952 635.239 259.881 634.895 259.45L630.827 254.355ZM639.233 265.556C638.923 265.099 639.041 264.477 639.497 264.166C639.954 263.856 640.576 263.974 640.887 264.43L644.588 269.866C644.899 270.322 644.781 270.944 644.324 271.255C643.868 271.566 643.246 271.448 642.935 270.992L639.233 265.556ZM646.316 276.829C645.971 276.398 646.042 275.769 646.474 275.424C646.905 275.079 647.534 275.15 647.879 275.582L651.946 280.676C652.291 281.108 652.22 281.737 651.789 282.082C651.357 282.426 650.728 282.356 650.383 281.924L646.316 276.829ZM617.616 215.981C617.305 215.524 617.423 214.902 617.88 214.591C618.336 214.28 618.958 214.399 619.269 214.855L622.971 220.291C623.281 220.747 623.163 221.369 622.707 221.68C622.25 221.991 621.628 221.873 621.318 221.417L617.616 215.981ZM633.104 238.455C632.794 237.999 632.912 237.377 633.368 237.066C633.825 236.755 634.447 236.873 634.758 237.33L638.459 242.765C638.77 243.222 638.652 243.844 638.195 244.155C637.739 244.466 637.117 244.348 636.806 243.891L633.104 238.455ZM624.699 227.254C624.354 226.823 624.425 226.194 624.856 225.849C625.288 225.504 625.917 225.575 626.262 226.007L630.329 231.101C630.673 231.533 630.603 232.162 630.171 232.507C629.74 232.851 629.11 232.781 628.766 232.349L624.699 227.254ZM640.187 249.729C639.842 249.297 639.913 248.668 640.345 248.324C640.776 247.979 641.405 248.05 641.75 248.481L645.817 253.576C646.162 254.008 646.091 254.637 645.66 254.981C645.228 255.326 644.599 255.255 644.254 254.824L640.187 249.729ZM648.593 260.93C648.282 260.473 648.4 259.851 648.857 259.54C649.313 259.23 649.935 259.348 650.246 259.804L653.948 265.24C654.259 265.696 654.14 266.318 653.684 266.629C653.227 266.94 652.605 266.822 652.295 266.366L648.593 260.93ZM655.676 272.203C655.331 271.772 655.402 271.143 655.833 270.798C656.265 270.454 656.894 270.524 657.239 270.956L661.306 276.05C661.65 276.482 661.58 277.111 661.148 277.456C660.717 277.8 660.087 277.73 659.743 277.298L655.676 272.203ZM626.975 211.355C626.665 210.898 626.783 210.276 627.239 209.965C627.696 209.655 628.318 209.773 628.628 210.229L632.33 215.665C632.641 216.121 632.523 216.743 632.066 217.054C631.61 217.365 630.988 217.247 630.677 216.791L626.975 211.355ZM642.464 233.829C642.153 233.373 642.271 232.751 642.728 232.44C643.184 232.129 643.806 232.247 644.117 232.704L647.819 238.139C648.13 238.596 648.011 239.218 647.555 239.529C647.098 239.84 646.476 239.722 646.166 239.265L642.464 233.829ZM634.058 222.628C633.713 222.197 633.784 221.568 634.216 221.223C634.647 220.879 635.276 220.949 635.621 221.381L639.688 226.475C640.033 226.907 639.962 227.536 639.531 227.881C639.099 228.225 638.47 228.155 638.125 227.723L634.058 222.628ZM649.547 245.103C649.202 244.671 649.273 244.042 649.704 243.698C650.136 243.353 650.765 243.424 651.11 243.855L655.177 248.95C655.521 249.382 655.451 250.011 655.019 250.355C654.588 250.7 653.958 250.629 653.614 250.198L649.547 245.103ZM657.952 256.304C657.642 255.847 657.76 255.225 658.216 254.915C658.673 254.604 659.295 254.722 659.606 255.178L663.307 260.614C663.618 261.07 663.5 261.693 663.044 262.003C662.587 262.314 661.965 262.196 661.654 261.74L657.952 256.304ZM665.035 267.578C664.691 267.146 664.761 266.517 665.193 266.172C665.624 265.828 666.254 265.898 666.598 266.33L670.665 271.425C671.01 271.856 670.939 272.485 670.508 272.83C670.076 273.175 669.447 273.104 669.102 272.672L665.035 267.578ZM651.823 229.203C651.513 228.747 651.631 228.125 652.087 227.814C652.544 227.503 653.166 227.621 653.477 228.078L657.178 233.514C657.489 233.97 657.371 234.592 656.914 234.903C656.458 235.214 655.836 235.096 655.525 234.639L651.823 229.203ZM643.418 218.003C643.073 217.571 643.144 216.942 643.575 216.597C644.007 216.253 644.636 216.323 644.981 216.755L649.048 221.85C649.392 222.281 649.322 222.91 648.89 223.255C648.459 223.6 647.829 223.529 647.485 223.097L643.418 218.003ZM658.906 240.477C658.562 240.045 658.632 239.416 659.064 239.072C659.495 238.727 660.125 238.798 660.469 239.229L664.536 244.324C664.881 244.756 664.81 245.385 664.379 245.73C663.947 246.074 663.318 246.004 662.973 245.572L658.906 240.477ZM638.186 209.447L639.839 208.321L638.186 209.447ZM638.186 209.447L636.335 206.729C635.584 205.627 637.238 204.501 637.988 205.603L639.839 208.321L641.69 211.039C642.44 212.141 640.787 213.267 640.037 212.165L638.186 209.447ZM669.163 254.396L670.816 253.27L669.163 254.396ZM670.816 253.27C671.566 254.372 669.913 255.498 669.163 254.396L667.312 251.678C666.562 250.576 668.215 249.45 668.965 250.552L670.816 253.27L672.667 255.988C673.417 257.09 671.764 258.216 671.014 257.114L669.163 254.396C668.412 253.294 670.065 252.168 670.816 253.27ZM674.395 262.952C674.05 262.52 674.121 261.891 674.552 261.546C674.984 261.202 675.613 261.272 675.958 261.704L680.025 266.799C680.37 267.23 680.299 267.859 679.867 268.204C679.436 268.549 678.807 268.478 678.462 268.046L674.395 262.952ZM625.791 302.758C625.497 302.291 625.636 301.674 626.103 301.379C626.57 301.084 627.188 301.224 627.483 301.691L630.992 307.253C631.287 307.72 631.147 308.337 630.68 308.632C630.213 308.927 629.596 308.787 629.301 308.32L625.791 302.758ZM635.307 298.462C635.012 297.995 635.151 297.377 635.619 297.083C636.086 296.788 636.703 296.927 636.998 297.395L640.508 302.956C640.802 303.423 640.663 304.041 640.196 304.336C639.728 304.63 639.111 304.491 638.816 304.024L635.307 298.462ZM640.486 325.76C640.191 325.293 640.331 324.675 640.798 324.38C641.265 324.086 641.883 324.225 642.177 324.692L645.687 330.254C645.982 330.721 645.842 331.339 645.375 331.633C644.908 331.928 644.29 331.788 643.996 331.321L640.486 325.76ZM650.001 321.463C649.707 320.996 649.846 320.379 650.313 320.084C650.78 319.789 651.398 319.929 651.693 320.396L655.202 325.958C655.497 326.425 655.357 327.042 654.89 327.337C654.423 327.632 653.806 327.492 653.511 327.025L650.001 321.463ZM632.476 314.272C632.147 313.829 632.239 313.203 632.683 312.873C633.126 312.544 633.752 312.636 634.082 313.08L637.969 318.313C638.298 318.757 638.206 319.383 637.762 319.713C637.319 320.042 636.692 319.949 636.363 319.506L632.476 314.272ZM641.991 309.976C641.662 309.532 641.755 308.906 642.198 308.577C642.641 308.247 643.268 308.34 643.597 308.783L647.484 314.017C647.813 314.46 647.721 315.087 647.277 315.416C646.834 315.745 646.208 315.653 645.878 315.209L641.991 309.976ZM647.171 337.274C646.842 336.83 646.934 336.204 647.377 335.875C647.821 335.545 648.447 335.638 648.777 336.081L652.664 341.315C652.993 341.758 652.9 342.385 652.457 342.714C652.014 343.043 651.387 342.951 651.058 342.507L647.171 337.274ZM656.686 332.977C656.357 332.534 656.449 331.907 656.893 331.578C657.336 331.249 657.962 331.341 658.292 331.785L662.179 337.018C662.508 337.462 662.416 338.088 661.972 338.417C661.529 338.747 660.902 338.654 660.573 338.211L656.686 332.977ZM655.181 348.761C654.886 348.294 655.026 347.677 655.493 347.382C655.96 347.087 656.577 347.227 656.872 347.694L660.382 353.255C660.677 353.723 660.537 354.34 660.07 354.635C659.603 354.93 658.985 354.79 658.69 354.323L655.181 348.761ZM664.696 344.465C664.401 343.998 664.541 343.38 665.008 343.085C665.475 342.791 666.093 342.93 666.387 343.397L669.897 348.959C670.192 349.426 670.052 350.044 669.585 350.338C669.118 350.633 668.5 350.493 668.206 350.026L664.696 344.465ZM661.866 360.275C661.536 359.832 661.629 359.205 662.072 358.876C662.516 358.547 663.142 358.639 663.471 359.083L667.358 364.316C667.688 364.76 667.595 365.386 667.152 365.715C666.708 366.045 666.082 365.952 665.753 365.509L661.866 360.275ZM671.381 355.979C671.052 355.535 671.144 354.909 671.587 354.58C672.031 354.25 672.657 354.343 672.987 354.786L676.874 360.02C677.203 360.463 677.11 361.09 676.667 361.419C676.224 361.748 675.597 361.656 675.268 361.212L671.381 355.979ZM644.822 294.165C644.527 293.698 644.667 293.081 645.134 292.786C645.601 292.491 646.218 292.631 646.513 293.098L650.023 298.66C650.318 299.127 650.178 299.744 649.711 300.039C649.244 300.334 648.626 300.194 648.331 299.727L644.822 294.165ZM659.517 317.167C659.222 316.7 659.362 316.082 659.829 315.787C660.296 315.493 660.913 315.632 661.208 316.099L664.718 321.661C665.012 322.128 664.873 322.746 664.406 323.041C663.939 323.335 663.321 323.196 663.026 322.728L659.517 317.167ZM651.507 305.679C651.177 305.236 651.27 304.61 651.713 304.28C652.157 303.951 652.783 304.044 653.112 304.487L656.999 309.721C657.329 310.164 657.236 310.79 656.793 311.12C656.349 311.449 655.723 311.356 655.394 310.913L651.507 305.679ZM666.201 328.681C665.872 328.237 665.965 327.611 666.408 327.282C666.851 326.952 667.478 327.045 667.807 327.488L671.694 332.722C672.023 333.165 671.931 333.792 671.488 334.121C671.044 334.45 670.418 334.358 670.088 333.914L666.201 328.681ZM674.211 340.168C673.917 339.701 674.056 339.084 674.523 338.789C674.99 338.494 675.608 338.634 675.903 339.101L679.412 344.663C679.707 345.13 679.567 345.747 679.1 346.042C678.633 346.337 678.016 346.197 677.721 345.73L674.211 340.168ZM680.896 351.682C680.567 351.239 680.659 350.612 681.103 350.283C681.546 349.954 682.173 350.046 682.502 350.49L686.389 355.723C686.718 356.167 686.626 356.793 686.182 357.122C685.739 357.452 685.113 357.359 684.783 356.916L680.896 351.682ZM654.337 289.869C654.042 289.402 654.182 288.784 654.649 288.49C655.116 288.195 655.734 288.335 656.028 288.802L659.538 294.363C659.833 294.83 659.693 295.448 659.226 295.743C658.759 296.037 658.141 295.898 657.847 295.431L654.337 289.869ZM669.032 312.87C668.737 312.403 668.877 311.786 669.344 311.491C669.811 311.196 670.428 311.336 670.723 311.803L674.233 317.365C674.528 317.832 674.388 318.449 673.921 318.744C673.454 319.039 672.836 318.899 672.542 318.432L669.032 312.87ZM661.022 301.383C660.693 300.94 660.785 300.313 661.229 299.984C661.672 299.655 662.298 299.747 662.628 300.19L666.515 305.424C666.844 305.867 666.751 306.494 666.308 306.823C665.865 307.152 665.238 307.06 664.909 306.617L661.022 301.383ZM675.717 324.384C675.387 323.941 675.48 323.315 675.923 322.985C676.367 322.656 676.993 322.748 677.322 323.192L681.209 328.425C681.539 328.869 681.446 329.495 681.003 329.825C680.559 330.154 679.933 330.061 679.604 329.618L675.717 324.384ZM683.727 335.872C683.432 335.405 683.572 334.787 684.039 334.492C684.506 334.198 685.123 334.337 685.418 334.804L688.928 340.366C689.222 340.833 689.083 341.451 688.616 341.745C688.149 342.04 687.531 341.9 687.236 341.433L683.727 335.872ZM690.411 347.386C690.082 346.942 690.175 346.316 690.618 345.987C691.061 345.657 691.688 345.75 692.017 346.193L695.904 351.427C696.233 351.87 696.141 352.497 695.698 352.826C695.254 353.155 694.628 353.063 694.298 352.619L690.411 347.386ZM663.852 285.573C663.558 285.105 663.697 284.488 664.164 284.193C664.631 283.898 665.249 284.038 665.544 284.505L669.053 290.067C669.348 290.534 669.208 291.151 668.741 291.446C668.274 291.741 667.657 291.601 667.362 291.134L663.852 285.573ZM678.547 308.574C678.252 308.107 678.392 307.489 678.859 307.195C679.326 306.9 679.944 307.039 680.238 307.507L683.748 313.068C684.043 313.535 683.903 314.153 683.436 314.448C682.969 314.742 682.352 314.603 682.057 314.136L678.547 308.574ZM670.537 297.086C670.208 296.643 670.3 296.017 670.744 295.687C671.187 295.358 671.814 295.451 672.143 295.894L676.03 301.128C676.359 301.571 676.267 302.197 675.823 302.527C675.38 302.856 674.754 302.763 674.424 302.32L670.537 297.086ZM685.232 320.088C684.903 319.644 684.995 319.018 685.439 318.689C685.882 318.36 686.508 318.452 686.838 318.895L690.725 324.129C691.054 324.572 690.961 325.199 690.518 325.528C690.075 325.857 689.448 325.765 689.119 325.321L685.232 320.088ZM693.242 331.575C692.947 331.108 693.087 330.491 693.554 330.196C694.021 329.901 694.639 330.041 694.933 330.508L698.443 336.07C698.738 336.537 698.598 337.154 698.131 337.449C697.664 337.744 697.046 337.604 696.752 337.137L693.242 331.575ZM699.927 343.089C699.597 342.646 699.69 342.019 700.133 341.69C700.577 341.361 701.203 341.453 701.532 341.897L705.419 347.13C705.749 347.574 705.656 348.2 705.213 348.529C704.769 348.859 704.143 348.766 703.814 348.323L699.927 343.089ZM673.368 281.276C673.073 280.809 673.213 280.191 673.68 279.897C674.147 279.602 674.764 279.742 675.059 280.209L678.569 285.77C678.863 286.237 678.724 286.855 678.257 287.15C677.79 287.444 677.172 287.305 676.877 286.838L673.368 281.276ZM688.062 304.277C687.768 303.81 687.907 303.193 688.374 302.898C688.841 302.603 689.459 302.743 689.754 303.21L693.263 308.772C693.558 309.239 693.418 309.856 692.951 310.151C692.484 310.446 691.867 310.306 691.572 309.839L688.062 304.277ZM680.053 292.79C679.723 292.347 679.816 291.72 680.259 291.391C680.702 291.062 681.329 291.154 681.658 291.598L685.545 296.831C685.874 297.275 685.782 297.901 685.339 298.23C684.895 298.559 684.269 298.467 683.94 298.024L680.053 292.79ZM694.747 315.791C694.418 315.348 694.51 314.722 694.954 314.392C695.397 314.063 696.024 314.156 696.353 314.599L700.24 319.833C700.569 320.276 700.477 320.902 700.033 321.232C699.59 321.561 698.964 321.468 698.634 321.025L694.747 315.791ZM702.757 327.279C702.462 326.812 702.602 326.194 703.069 325.899C703.536 325.605 704.154 325.744 704.449 326.211L707.958 331.773C708.253 332.24 708.113 332.858 707.646 333.153C707.179 333.447 706.562 333.308 706.267 332.841L702.757 327.279ZM709.442 338.793C709.113 338.349 709.205 337.723 709.649 337.394C710.092 337.064 710.718 337.157 711.048 337.6L714.935 342.834C715.264 343.277 715.171 343.904 714.728 344.233C714.285 344.562 713.658 344.47 713.329 344.026L709.442 338.793ZM697.578 299.981C697.283 299.514 697.423 298.896 697.89 298.602C698.357 298.307 698.974 298.447 699.269 298.914L702.779 304.475C703.073 304.942 702.934 305.56 702.467 305.855C702 306.149 701.382 306.01 701.087 305.543L697.578 299.981ZM689.568 288.494C689.238 288.05 689.331 287.424 689.774 287.094C690.218 286.765 690.844 286.858 691.173 287.301L695.06 292.535C695.39 292.978 695.297 293.604 694.854 293.934C694.41 294.263 693.784 294.171 693.455 293.727L689.568 288.494ZM704.263 311.495C703.933 311.052 704.026 310.425 704.469 310.096C704.912 309.767 705.539 309.859 705.868 310.302L709.755 315.536C710.084 315.979 709.992 316.606 709.549 316.935C709.105 317.264 708.479 317.172 708.15 316.729L704.263 311.495ZM684.638 279.76L686.329 278.693L684.638 279.76ZM684.638 279.76L682.883 276.98C682.171 275.852 683.863 274.785 684.574 275.912L686.329 278.693L688.084 281.474C688.796 282.602 687.104 283.669 686.393 282.541L684.638 279.76ZM714.027 325.763L715.719 324.696L714.027 325.763ZM715.719 324.696C716.43 325.823 714.739 326.891 714.027 325.763L712.272 322.982C711.561 321.855 713.252 320.787 713.964 321.915L715.719 324.696L717.473 327.477C718.185 328.604 716.494 329.672 715.782 328.544L714.027 325.763C713.316 324.636 715.007 323.568 715.719 324.696ZM718.957 334.496C718.628 334.053 718.72 333.427 719.164 333.097C719.607 332.768 720.234 332.86 720.563 333.304L724.45 338.537C724.779 338.981 724.687 339.607 724.243 339.937C723.8 340.266 723.174 340.173 722.844 339.73L718.957 334.496ZM335.717 166.232C335.183 166.091 334.864 165.544 335.004 165.01C335.145 164.476 335.692 164.157 336.226 164.298L342.586 165.972C343.12 166.112 343.439 166.659 343.298 167.193C343.158 167.727 342.611 168.046 342.077 167.906L335.717 166.232ZM339.746 156.6C339.212 156.46 338.893 155.913 339.033 155.379C339.174 154.844 339.721 154.525 340.255 154.666L346.615 156.34C347.149 156.481 347.468 157.027 347.327 157.562C347.187 158.096 346.64 158.415 346.106 158.274L339.746 156.6ZM362.151 173.032C361.617 172.892 361.298 172.345 361.438 171.811C361.579 171.276 362.126 170.957 362.66 171.098L369.02 172.772C369.554 172.913 369.873 173.459 369.732 173.994C369.592 174.528 369.045 174.847 368.511 174.706L362.151 173.032ZM366.18 163.401C365.646 163.26 365.327 162.713 365.467 162.179C365.608 161.645 366.155 161.326 366.689 161.466L373.049 163.14C373.583 163.281 373.902 163.828 373.761 164.362C373.621 164.896 373.074 165.215 372.539 165.074L366.18 163.401ZM348.458 170.093C347.915 169.994 347.556 169.473 347.655 168.929C347.755 168.386 348.276 168.027 348.819 168.126L355.231 169.303C355.775 169.403 356.134 169.924 356.035 170.467C355.935 171.01 355.414 171.37 354.87 171.27L348.458 170.093ZM352.487 160.462C351.944 160.362 351.584 159.841 351.684 159.298C351.784 158.755 352.305 158.395 352.848 158.495L359.26 159.671C359.803 159.771 360.163 160.292 360.063 160.835C359.964 161.379 359.443 161.738 358.899 161.639L352.487 160.462ZM374.892 176.894C374.349 176.794 373.99 176.273 374.089 175.73C374.189 175.187 374.71 174.827 375.253 174.927L381.665 176.103C382.209 176.203 382.568 176.724 382.468 177.267C382.369 177.811 381.848 178.17 381.304 178.071L374.892 176.894ZM378.921 167.262C378.378 167.163 378.018 166.641 378.118 166.098C378.218 165.555 378.739 165.195 379.282 165.295L385.694 166.472C386.237 166.571 386.597 167.093 386.497 167.636C386.398 168.179 385.876 168.539 385.333 168.439L378.921 167.262ZM388.585 179.832C388.051 179.692 387.732 179.145 387.872 178.611C388.013 178.077 388.56 177.758 389.094 177.898L395.454 179.572C395.988 179.713 396.307 180.26 396.166 180.794C396.026 181.328 395.479 181.647 394.945 181.506L388.585 179.832ZM392.614 170.201C392.08 170.06 391.761 169.513 391.901 168.979C392.042 168.445 392.589 168.126 393.123 168.267L399.483 169.941C400.017 170.081 400.336 170.628 400.195 171.162C400.055 171.696 399.508 172.015 398.973 171.875L392.614 170.201ZM401.326 183.694C400.783 183.594 400.424 183.073 400.523 182.53C400.623 181.987 401.144 181.627 401.687 181.727L408.099 182.904C408.643 183.003 409.002 183.525 408.902 184.068C408.803 184.611 408.282 184.971 407.738 184.871L401.326 183.694ZM405.355 174.063C404.812 173.963 404.452 173.442 404.552 172.898C404.652 172.355 405.173 171.996 405.716 172.095L412.128 173.272C412.671 173.372 413.031 173.893 412.931 174.436C412.832 174.979 412.31 175.339 411.767 175.239L405.355 174.063ZM343.775 146.969C343.24 146.828 342.921 146.281 343.062 145.747C343.203 145.213 343.749 144.894 344.284 145.034L350.643 146.708C351.178 146.849 351.497 147.396 351.356 147.93C351.215 148.464 350.668 148.783 350.134 148.642L343.775 146.969ZM370.208 153.769C369.674 153.628 369.355 153.081 369.496 152.547C369.637 152.013 370.183 151.694 370.718 151.835L377.077 153.509C377.612 153.649 377.931 154.196 377.79 154.73C377.649 155.264 377.102 155.583 376.568 155.443L370.208 153.769ZM356.516 150.83C355.973 150.731 355.613 150.209 355.713 149.666C355.813 149.123 356.334 148.763 356.877 148.863L363.289 150.04C363.832 150.139 364.192 150.661 364.092 151.204C363.993 151.747 363.471 152.107 362.928 152.007L356.516 150.83ZM382.95 157.631C382.407 157.531 382.047 157.01 382.147 156.466C382.247 155.923 382.768 155.564 383.311 155.663L389.723 156.84C390.266 156.94 390.626 157.461 390.526 158.004C390.427 158.547 389.905 158.907 389.362 158.807L382.95 157.631ZM396.642 160.569C396.108 160.429 395.789 159.882 395.93 159.348C396.071 158.814 396.617 158.495 397.152 158.635L403.511 160.309C404.046 160.45 404.365 160.997 404.224 161.531C404.083 162.065 403.536 162.384 403.002 162.243L396.642 160.569ZM409.384 164.431C408.841 164.331 408.481 163.81 408.581 163.267C408.681 162.724 409.202 162.364 409.745 162.464L416.157 163.64C416.7 163.74 417.06 164.261 416.96 164.805C416.86 165.348 416.339 165.707 415.796 165.608L409.384 164.431ZM347.803 137.337C347.269 137.196 346.95 136.649 347.091 136.115C347.231 135.581 347.778 135.262 348.312 135.403L354.672 137.077C355.206 137.217 355.525 137.764 355.385 138.298C355.244 138.832 354.697 139.151 354.163 139.011L347.803 137.337ZM374.237 144.137C373.703 143.997 373.384 143.45 373.525 142.916C373.665 142.382 374.212 142.063 374.746 142.203L381.106 143.877C381.64 144.018 381.959 144.565 381.819 145.099C381.678 145.633 381.131 145.952 380.597 145.811L374.237 144.137ZM360.545 141.199C360.002 141.099 359.642 140.578 359.742 140.035C359.841 139.491 360.363 139.132 360.906 139.231L367.318 140.408C367.861 140.508 368.221 141.029 368.121 141.572C368.021 142.115 367.5 142.475 366.957 142.375L360.545 141.199ZM386.979 147.999C386.436 147.899 386.076 147.378 386.176 146.835C386.275 146.292 386.797 145.932 387.34 146.032L393.752 147.208C394.295 147.308 394.655 147.829 394.555 148.373C394.455 148.916 393.934 149.275 393.391 149.176L386.979 147.999ZM400.671 150.938C400.137 150.797 399.818 150.25 399.959 149.716C400.099 149.182 400.646 148.863 401.18 149.003L407.54 150.677C408.074 150.818 408.393 151.365 408.253 151.899C408.112 152.433 407.565 152.752 407.031 152.612L400.671 150.938ZM413.413 154.799C412.87 154.7 412.51 154.178 412.61 153.635C412.709 153.092 413.231 152.732 413.774 152.832L420.186 154.009C420.729 154.109 421.089 154.63 420.989 155.173C420.889 155.716 420.368 156.076 419.825 155.976L413.413 154.799ZM351.832 127.705C351.298 127.565 350.979 127.018 351.12 126.484C351.26 125.95 351.807 125.631 352.341 125.771L358.701 127.445C359.235 127.586 359.554 128.133 359.414 128.667C359.273 129.201 358.726 129.52 358.192 129.379L351.832 127.705ZM378.266 134.506C377.732 134.365 377.413 133.818 377.554 133.284C377.694 132.75 378.241 132.431 378.775 132.571L385.135 134.245C385.669 134.386 385.988 134.933 385.848 135.467C385.707 136.001 385.16 136.32 384.626 136.18L378.266 134.506ZM364.574 131.567C364.031 131.467 363.671 130.946 363.771 130.403C363.87 129.86 364.392 129.5 364.935 129.6L371.347 130.776C371.89 130.876 372.25 131.397 372.15 131.941C372.05 132.484 371.529 132.843 370.986 132.744L364.574 131.567ZM391.008 138.367C390.464 138.268 390.105 137.746 390.205 137.203C390.304 136.66 390.825 136.3 391.369 136.4L397.781 137.577C398.324 137.677 398.684 138.198 398.584 138.741C398.484 139.284 397.963 139.644 397.42 139.544L391.008 138.367ZM404.7 141.306C404.166 141.165 403.847 140.618 403.988 140.084C404.128 139.55 404.675 139.231 405.209 139.372L411.569 141.046C412.103 141.186 412.422 141.733 412.282 142.267C412.141 142.801 411.594 143.12 411.06 142.98L404.7 141.306ZM417.442 145.168C416.898 145.068 416.539 144.547 416.639 144.004C416.738 143.46 417.259 143.101 417.803 143.2L424.215 144.377C424.758 144.477 425.118 144.998 425.018 145.541C424.918 146.084 424.397 146.444 423.854 146.344L417.442 145.168ZM355.861 118.074C355.327 117.933 355.008 117.386 355.149 116.852C355.289 116.318 355.836 115.999 356.37 116.139L362.73 117.813C363.264 117.954 363.583 118.501 363.443 119.035C363.302 119.569 362.755 119.888 362.221 119.748L355.861 118.074ZM382.295 124.874C381.761 124.733 381.442 124.186 381.583 123.652C381.723 123.118 382.27 122.799 382.804 122.94L389.164 124.614C389.698 124.754 390.017 125.301 389.876 125.835C389.736 126.37 389.189 126.689 388.655 126.548L382.295 124.874ZM368.603 121.935C368.059 121.836 367.7 121.314 367.799 120.771C367.899 120.228 368.42 119.868 368.964 119.968L375.376 121.145C375.919 121.245 376.278 121.766 376.179 122.309C376.079 122.852 375.558 123.212 375.015 123.112L368.603 121.935ZM395.037 128.736C394.493 128.636 394.134 128.115 394.233 127.572C394.333 127.028 394.854 126.669 395.398 126.769L401.81 127.945C402.353 128.045 402.712 128.566 402.613 129.109C402.513 129.653 401.992 130.012 401.449 129.912L395.037 128.736ZM408.729 131.674C408.195 131.534 407.876 130.987 408.017 130.453C408.157 129.919 408.704 129.6 409.238 129.74L415.598 131.414C416.132 131.555 416.451 132.102 416.31 132.636C416.17 133.17 415.623 133.489 415.089 133.348L408.729 131.674ZM421.471 135.536C420.927 135.436 420.568 134.915 420.667 134.372C420.767 133.829 421.288 133.469 421.832 133.569L428.244 134.746C428.787 134.845 429.146 135.366 429.047 135.91C428.947 136.453 428.426 136.812 427.883 136.713L421.471 135.536ZM386.324 115.242C385.79 115.102 385.471 114.555 385.611 114.021C385.752 113.487 386.299 113.168 386.833 113.308L393.193 114.982C393.727 115.123 394.046 115.67 393.905 116.204C393.765 116.738 393.218 117.057 392.684 116.916L386.324 115.242ZM372.631 112.304C372.088 112.204 371.729 111.683 371.828 111.14C371.928 110.596 372.449 110.237 372.992 110.337L379.405 111.513C379.948 111.613 380.307 112.134 380.208 112.677C380.108 113.221 379.587 113.58 379.044 113.48L372.631 112.304ZM399.065 119.104C398.522 119.004 398.163 118.483 398.262 117.94C398.362 117.397 398.883 117.037 399.426 117.137L405.839 118.314C406.382 118.413 406.741 118.934 406.642 119.478C406.542 120.021 406.021 120.38 405.478 120.281L399.065 119.104ZM363.07 109.279L363.579 107.345L363.07 109.279ZM363.07 109.279L359.89 108.442C358.601 108.103 359.11 106.168 360.399 106.508L363.579 107.345L366.759 108.182C368.048 108.521 367.539 110.455 366.25 110.116L363.07 109.279ZM415.938 122.88L416.447 120.946L415.938 122.88ZM416.447 120.946C417.736 121.285 417.227 123.219 415.938 122.88L412.758 122.043C411.468 121.703 411.978 119.769 413.267 120.109L416.447 120.946L419.627 121.783C420.916 122.122 420.407 124.056 419.118 123.717L415.938 122.88C414.648 122.54 415.157 120.606 416.447 120.946ZM425.499 125.904C424.956 125.805 424.597 125.284 424.696 124.74C424.796 124.197 425.317 123.838 425.86 123.937L432.272 125.114C432.816 125.214 433.175 125.735 433.076 126.278C432.976 126.821 432.455 127.181 431.912 127.081L425.499 125.904ZM238.751 147.408C238.212 147.286 237.874 146.75 237.996 146.212C238.118 145.673 238.653 145.335 239.192 145.457L245.606 146.908C246.145 147.03 246.483 147.565 246.361 148.104C246.239 148.643 245.704 148.981 245.165 148.859L238.751 147.408ZM242.441 137.641C241.902 137.52 241.564 136.984 241.686 136.445C241.808 135.907 242.344 135.569 242.882 135.691L249.297 137.142C249.835 137.264 250.173 137.799 250.051 138.338C249.929 138.876 249.394 139.214 248.855 139.092L242.441 137.641ZM265.406 153.281C264.867 153.16 264.529 152.624 264.651 152.085C264.773 151.547 265.308 151.209 265.847 151.331L272.262 152.782C272.8 152.904 273.138 153.439 273.016 153.978C272.894 154.516 272.359 154.854 271.82 154.732L265.406 153.281ZM269.096 143.515C268.557 143.393 268.22 142.858 268.341 142.319C268.463 141.78 268.999 141.443 269.537 141.564L275.952 143.015C276.491 143.137 276.828 143.673 276.707 144.211C276.585 144.75 276.049 145.088 275.511 144.966L269.096 143.515ZM251.619 150.822C251.073 150.742 250.695 150.233 250.776 149.687C250.857 149.141 251.365 148.763 251.911 148.844L258.361 149.796C258.907 149.877 259.285 150.385 259.204 150.931C259.123 151.478 258.615 151.855 258.068 151.775L251.619 150.822ZM255.309 141.056C254.763 140.975 254.386 140.467 254.466 139.921C254.547 139.374 255.055 138.997 255.602 139.078L262.051 140.03C262.597 140.11 262.975 140.619 262.894 141.165C262.813 141.711 262.305 142.089 261.759 142.008L255.309 141.056ZM278.274 156.696C277.728 156.615 277.351 156.107 277.431 155.561C277.512 155.014 278.02 154.637 278.567 154.718L285.016 155.67C285.562 155.75 285.94 156.259 285.859 156.805C285.778 157.351 285.27 157.729 284.724 157.648L278.274 156.696ZM281.965 146.93C281.418 146.849 281.041 146.341 281.121 145.794C281.202 145.248 281.71 144.871 282.257 144.951L288.706 145.903C289.252 145.984 289.63 146.492 289.549 147.039C289.469 147.585 288.96 147.963 288.414 147.882L281.965 146.93ZM292.061 159.155C291.522 159.033 291.185 158.498 291.306 157.959C291.428 157.42 291.964 157.083 292.502 157.204L298.917 158.655C299.455 158.777 299.793 159.313 299.672 159.851C299.55 160.39 299.014 160.728 298.476 160.606L292.061 159.155ZM295.751 149.389C295.213 149.267 294.875 148.731 294.997 148.193C295.118 147.654 295.654 147.316 296.193 147.438L302.607 148.889C303.146 149.011 303.484 149.546 303.362 150.085C303.24 150.624 302.704 150.962 302.166 150.84L295.751 149.389ZM304.93 162.57C304.383 162.489 304.006 161.981 304.086 161.434C304.167 160.888 304.675 160.511 305.222 160.591L311.671 161.543C312.217 161.624 312.595 162.132 312.514 162.679C312.434 163.225 311.925 163.603 311.379 163.522L304.93 162.57ZM308.62 152.803C308.074 152.723 307.696 152.214 307.777 151.668C307.857 151.122 308.366 150.744 308.912 150.825L315.361 151.777C315.908 151.858 316.285 152.366 316.204 152.912C316.124 153.459 315.616 153.836 315.069 153.756L308.62 152.803ZM246.131 127.875C245.593 127.753 245.255 127.218 245.376 126.679C245.498 126.14 246.034 125.802 246.572 125.924L252.987 127.375C253.526 127.497 253.863 128.033 253.742 128.571C253.62 129.11 253.084 129.448 252.546 129.326L246.131 127.875ZM272.786 133.749C272.248 133.627 271.91 133.091 272.032 132.553C272.154 132.014 272.689 131.676 273.228 131.798L279.642 133.249C280.181 133.371 280.519 133.906 280.397 134.445C280.275 134.984 279.739 135.322 279.201 135.2L272.786 133.749ZM259 131.29C258.453 131.209 258.076 130.701 258.157 130.154C258.237 129.608 258.745 129.23 259.292 129.311L265.741 130.263C266.287 130.344 266.665 130.852 266.584 131.399C266.504 131.945 265.995 132.323 265.449 132.242L259 131.29ZM285.655 137.163C285.109 137.083 284.731 136.574 284.812 136.028C284.892 135.482 285.401 135.104 285.947 135.185L292.396 136.137C292.943 136.218 293.32 136.726 293.24 137.272C293.159 137.819 292.651 138.196 292.104 138.116L285.655 137.163ZM299.442 139.622C298.903 139.501 298.565 138.965 298.687 138.426C298.809 137.888 299.344 137.55 299.883 137.672L306.297 139.123C306.836 139.245 307.174 139.78 307.052 140.319C306.93 140.857 306.395 141.195 305.856 141.073L299.442 139.622ZM312.31 143.037C311.764 142.956 311.386 142.448 311.467 141.902C311.548 141.355 312.056 140.978 312.602 141.059L319.052 142.011C319.598 142.091 319.975 142.6 319.895 143.146C319.814 143.692 319.306 144.07 318.759 143.989L312.31 143.037ZM249.821 118.109C249.283 117.987 248.945 117.451 249.067 116.913C249.189 116.374 249.724 116.036 250.263 116.158L256.677 117.609C257.216 117.731 257.554 118.266 257.432 118.805C257.31 119.344 256.775 119.682 256.236 119.56L249.821 118.109ZM276.477 123.982C275.938 123.86 275.6 123.325 275.722 122.786C275.844 122.248 276.379 121.91 276.918 122.032L283.332 123.483C283.871 123.604 284.209 124.14 284.087 124.679C283.965 125.217 283.43 125.555 282.891 125.433L276.477 123.982ZM262.69 121.523C262.144 121.443 261.766 120.934 261.847 120.388C261.927 119.842 262.436 119.464 262.982 119.545L269.431 120.497C269.978 120.578 270.355 121.086 270.275 121.632C270.194 122.179 269.686 122.556 269.139 122.476L262.69 121.523ZM289.345 127.397C288.799 127.316 288.421 126.808 288.502 126.262C288.583 125.715 289.091 125.338 289.637 125.418L296.087 126.371C296.633 126.451 297.01 126.96 296.93 127.506C296.849 128.052 296.341 128.43 295.794 128.349L289.345 127.397ZM303.132 129.856C302.593 129.734 302.255 129.199 302.377 128.66C302.499 128.121 303.034 127.783 303.573 127.905L309.988 129.356C310.526 129.478 310.864 130.014 310.742 130.552C310.62 131.091 310.085 131.429 309.546 131.307L303.132 129.856ZM316 133.271C315.454 133.19 315.077 132.682 315.157 132.135C315.238 131.589 315.746 131.211 316.293 131.292L322.742 132.244C323.288 132.325 323.666 132.833 323.585 133.38C323.504 133.926 322.996 134.304 322.45 134.223L316 133.271ZM253.512 108.342C252.973 108.22 252.635 107.685 252.757 107.146C252.879 106.608 253.414 106.27 253.953 106.392L260.367 107.843C260.906 107.964 261.244 108.5 261.122 109.039C261 109.577 260.465 109.915 259.926 109.793L253.512 108.342ZM280.167 114.216C279.628 114.094 279.29 113.559 279.412 113.02C279.534 112.481 280.07 112.143 280.608 112.265L287.023 113.716C287.561 113.838 287.899 114.374 287.777 114.912C287.655 115.451 287.12 115.789 286.581 115.667L280.167 114.216ZM266.38 111.757C265.834 111.676 265.456 111.168 265.537 110.622C265.618 110.075 266.126 109.698 266.672 109.778L273.122 110.731C273.668 110.811 274.046 111.32 273.965 111.866C273.884 112.412 273.376 112.79 272.83 112.709L266.38 111.757ZM293.035 117.631C292.489 117.55 292.112 117.042 292.192 116.495C292.273 115.949 292.781 115.571 293.328 115.652L299.777 116.604C300.323 116.685 300.701 117.193 300.62 117.74C300.539 118.286 300.031 118.664 299.485 118.583L293.035 117.631ZM306.822 120.09C306.283 119.968 305.946 119.432 306.067 118.894C306.189 118.355 306.725 118.017 307.263 118.139L313.678 119.59C314.216 119.712 314.554 120.247 314.433 120.786C314.311 121.325 313.775 121.662 313.237 121.541L306.822 120.09ZM319.691 123.504C319.144 123.424 318.767 122.915 318.847 122.369C318.928 121.823 319.436 121.445 319.983 121.526L326.432 122.478C326.978 122.559 327.356 123.067 327.275 123.613C327.195 124.16 326.686 124.537 326.14 124.457L319.691 123.504ZM257.202 98.5759C256.663 98.454 256.325 97.9186 256.447 97.3799C256.569 96.8413 257.105 96.5033 257.643 96.6252L264.058 98.0762C264.596 98.1981 264.934 98.7335 264.812 99.2722C264.691 99.8108 264.155 100.149 263.616 100.027L257.202 98.5759ZM283.857 104.45C283.319 104.328 282.981 103.792 283.102 103.254C283.224 102.715 283.76 102.377 284.298 102.499L290.713 103.95C291.252 104.072 291.589 104.607 291.468 105.146C291.346 105.685 290.81 106.022 290.272 105.901L283.857 104.45ZM270.07 101.991C269.524 101.91 269.147 101.402 269.227 100.855C269.308 100.309 269.816 99.9314 270.363 100.012L276.812 100.964C277.358 101.045 277.736 101.553 277.655 102.1C277.574 102.646 277.066 103.023 276.52 102.943L270.07 101.991ZM296.726 107.864C296.179 107.784 295.802 107.275 295.882 106.729C295.963 106.183 296.471 105.805 297.018 105.886L303.467 106.838C304.013 106.919 304.391 107.427 304.31 107.973C304.23 108.52 303.721 108.897 303.175 108.816L296.726 107.864ZM310.512 110.323C309.974 110.201 309.636 109.666 309.758 109.127C309.88 108.589 310.415 108.251 310.954 108.373L317.368 109.824C317.907 109.945 318.245 110.481 318.123 111.02C318.001 111.558 317.465 111.896 316.927 111.774L310.512 110.323ZM323.381 113.738C322.835 113.657 322.457 113.149 322.538 112.603C322.618 112.056 323.127 111.679 323.673 111.759L330.122 112.712C330.669 112.792 331.046 113.301 330.966 113.847C330.885 114.393 330.377 114.771 329.83 114.69L323.381 113.738ZM287.547 94.6832C287.009 94.5614 286.671 94.0259 286.793 93.4872C286.915 92.9486 287.45 92.6106 287.989 92.7325L294.403 94.1835C294.942 94.3054 295.28 94.8408 295.158 95.3795C295.036 95.9182 294.501 96.2561 293.962 96.1342L287.547 94.6832ZM273.761 92.2242C273.214 92.1436 272.837 91.6352 272.918 91.0889C272.998 90.5425 273.507 90.165 274.053 90.2457L280.502 91.1979C281.049 91.2785 281.426 91.7868 281.345 92.3332C281.265 92.8795 280.756 93.2571 280.21 93.1764L273.761 92.2242ZM300.416 98.0979C299.87 98.0172 299.492 97.5089 299.573 96.9626C299.653 96.4162 300.162 96.0387 300.708 96.1193L307.157 97.0715C307.704 97.1522 308.081 97.6605 308.001 98.2069C307.92 98.7532 307.412 99.1308 306.865 99.0501L300.416 98.0979ZM264.099 89.5351L264.541 87.5843L264.099 89.5351ZM264.099 89.5351L260.892 88.8096C259.592 88.5154 260.033 86.5647 261.334 86.8589L264.541 87.5843L267.748 88.3098C269.048 88.604 268.607 90.5547 267.307 90.2605L264.099 89.5351ZM317.41 101.282L317.851 99.3317L317.41 101.282ZM317.851 99.3317C319.152 99.6259 318.71 101.577 317.41 101.282L314.203 100.557C312.902 100.263 313.343 98.312 314.644 98.6062L317.851 99.3317L321.058 100.057C322.359 100.351 321.918 102.302 320.617 102.008L317.41 101.282C316.109 100.988 316.551 99.0375 317.851 99.3317ZM327.071 103.972C326.525 103.891 326.147 103.383 326.228 102.836C326.309 102.29 326.817 101.912 327.363 101.993L333.813 102.945C334.359 103.026 334.736 103.534 334.656 104.081C334.575 104.627 334.067 105.004 333.52 104.924L327.071 103.972ZM156.875 133.338C156.335 133.225 155.987 132.696 156.1 132.155C156.212 131.614 156.742 131.267 157.282 131.38L163.721 132.718C164.262 132.831 164.609 133.36 164.497 133.901C164.384 134.442 163.855 134.789 163.314 134.676L156.875 133.338ZM160.394 123.508C159.854 123.396 159.507 122.866 159.619 122.326C159.731 121.785 160.261 121.438 160.802 121.55L167.24 122.889C167.781 123.001 168.128 123.531 168.016 124.072C167.903 124.612 167.374 124.96 166.833 124.847L160.394 123.508ZM183.629 138.745C183.088 138.633 182.741 138.103 182.853 137.563C182.966 137.022 183.495 136.675 184.036 136.787L190.475 138.126C191.016 138.238 191.363 138.768 191.25 139.309C191.138 139.849 190.608 140.196 190.068 140.084L183.629 138.745ZM187.148 128.916C186.607 128.803 186.26 128.274 186.373 127.733C186.485 127.193 187.015 126.845 187.555 126.958L193.994 128.297C194.535 128.409 194.882 128.939 194.77 129.479C194.657 130.02 194.128 130.367 193.587 130.255L187.148 128.916ZM169.801 136.527C169.254 136.456 168.867 135.954 168.939 135.407C169.01 134.859 169.511 134.473 170.059 134.544L176.524 135.383C177.072 135.454 177.458 135.956 177.387 136.504C177.316 137.051 176.814 137.438 176.266 137.367L169.801 136.527ZM173.321 126.698C172.773 126.627 172.387 126.125 172.458 125.577C172.529 125.03 173.031 124.643 173.578 124.715L180.043 125.554C180.591 125.625 180.977 126.127 180.906 126.674C180.835 127.222 180.333 127.609 179.786 127.537L173.321 126.698ZM196.555 141.935C196.007 141.864 195.621 141.362 195.692 140.814C195.763 140.267 196.265 139.88 196.813 139.951L203.278 140.791C203.825 140.862 204.212 141.364 204.14 141.911C204.069 142.459 203.568 142.845 203.02 142.774L196.555 141.935ZM200.074 132.105C199.527 132.034 199.14 131.533 199.211 130.985C199.283 130.437 199.784 130.051 200.332 130.122L206.797 130.962C207.344 131.033 207.731 131.534 207.66 132.082C207.589 132.63 207.087 133.016 206.539 132.945L200.074 132.105ZM210.383 144.153C209.842 144.04 209.495 143.511 209.607 142.97C209.72 142.429 210.249 142.082 210.79 142.195L217.228 143.533C217.769 143.646 218.116 144.175 218.004 144.716C217.892 145.257 217.362 145.604 216.821 145.492L210.383 144.153ZM213.902 134.323C213.361 134.211 213.014 133.682 213.126 133.141C213.239 132.6 213.768 132.253 214.309 132.365L220.748 133.704C221.288 133.817 221.636 134.346 221.523 134.887C221.411 135.428 220.881 135.775 220.341 135.662L213.902 134.323ZM223.309 147.342C222.761 147.271 222.375 146.77 222.446 146.222C222.517 145.674 223.019 145.288 223.566 145.359L230.031 146.199C230.579 146.27 230.965 146.771 230.894 147.319C230.823 147.867 230.321 148.253 229.774 148.182L223.309 147.342ZM226.828 137.513C226.28 137.442 225.894 136.94 225.965 136.393C226.036 135.845 226.538 135.459 227.086 135.53L233.55 136.369C234.098 136.44 234.484 136.942 234.413 137.49C234.342 138.037 233.841 138.424 233.293 138.353L226.828 137.513ZM163.914 113.679C163.373 113.567 163.026 113.037 163.138 112.496C163.251 111.956 163.78 111.608 164.321 111.721L170.76 113.06C171.3 113.172 171.648 113.702 171.535 114.242C171.423 114.783 170.893 115.13 170.353 115.018L163.914 113.679ZM190.667 119.087C190.127 118.974 189.779 118.445 189.892 117.904C190.004 117.363 190.534 117.016 191.075 117.129L197.513 118.467C198.054 118.58 198.401 119.109 198.289 119.65C198.176 120.191 197.647 120.538 197.106 120.425L190.667 119.087ZM176.84 116.869C176.292 116.797 175.906 116.296 175.977 115.748C176.048 115.2 176.55 114.814 177.097 114.885L183.562 115.725C184.11 115.796 184.496 116.298 184.425 116.845C184.354 117.393 183.853 117.779 183.305 117.708L176.84 116.869ZM203.594 122.276C203.046 122.205 202.66 121.703 202.731 121.156C202.802 120.608 203.303 120.222 203.851 120.293L210.316 121.132C210.864 121.203 211.25 121.705 211.179 122.253C211.108 122.8 210.606 123.187 210.058 123.116L203.594 122.276ZM217.421 124.494C216.88 124.382 216.533 123.852 216.646 123.312C216.758 122.771 217.287 122.424 217.828 122.536L224.267 123.875C224.808 123.987 225.155 124.517 225.042 125.058C224.93 125.598 224.401 125.945 223.86 125.833L217.421 124.494ZM230.347 127.684C229.8 127.613 229.413 127.111 229.484 126.563C229.555 126.016 230.057 125.629 230.605 125.7L237.07 126.54C237.617 126.611 238.004 127.113 237.933 127.66C237.861 128.208 237.36 128.594 236.812 128.523L230.347 127.684ZM167.433 103.85C166.892 103.737 166.545 103.208 166.658 102.667C166.77 102.126 167.299 101.779 167.84 101.892L174.279 103.23C174.82 103.343 175.167 103.872 175.054 104.413C174.942 104.954 174.412 105.301 173.872 105.189L167.433 103.85ZM194.187 109.257C193.646 109.145 193.299 108.615 193.411 108.075C193.524 107.534 194.053 107.187 194.594 107.299L201.033 108.638C201.573 108.75 201.92 109.28 201.808 109.821C201.696 110.361 201.166 110.709 200.625 110.596L194.187 109.257ZM180.359 107.039C179.811 106.968 179.425 106.467 179.496 105.919C179.567 105.371 180.069 104.985 180.617 105.056L187.082 105.895C187.629 105.967 188.016 106.468 187.945 107.016C187.873 107.564 187.372 107.95 186.824 107.879L180.359 107.039ZM207.113 112.447C206.565 112.376 206.179 111.874 206.25 111.326C206.321 110.779 206.823 110.392 207.37 110.464L213.835 111.303C214.383 111.374 214.769 111.876 214.698 112.423C214.627 112.971 214.125 113.358 213.578 113.286L207.113 112.447ZM220.94 114.665C220.4 114.552 220.052 114.023 220.165 113.482C220.277 112.942 220.807 112.594 221.347 112.707L227.786 114.046C228.327 114.158 228.674 114.688 228.562 115.228C228.449 115.769 227.92 116.116 227.379 116.004L220.94 114.665ZM233.866 117.854C233.319 117.783 232.932 117.282 233.004 116.734C233.075 116.186 233.576 115.8 234.124 115.871L240.589 116.711C241.137 116.782 241.523 117.283 241.452 117.831C241.381 118.379 240.879 118.765 240.331 118.694L233.866 117.854ZM170.952 94.0205C170.412 93.908 170.064 93.3785 170.177 92.8378C170.289 92.2971 170.819 91.9499 171.359 92.0623L177.798 93.4011C178.339 93.5136 178.686 94.0431 178.574 94.5838C178.461 95.1245 177.932 95.4717 177.391 95.3593L170.952 94.0205ZM197.706 99.4281C197.165 99.3156 196.818 98.7861 196.93 98.2454C197.043 97.7047 197.572 97.3575 198.113 97.4699L204.552 98.8087C205.093 98.9212 205.44 99.4507 205.327 99.9914C205.215 100.532 204.685 100.879 204.145 100.767L197.706 99.4281ZM183.878 97.21C183.331 97.1389 182.944 96.6373 183.015 96.0896C183.087 95.5419 183.588 95.1556 184.136 95.2267L190.601 96.0662C191.149 96.1373 191.535 96.6389 191.464 97.1866C191.393 97.7343 190.891 98.1206 190.343 98.0495L183.878 97.21ZM210.632 102.618C210.084 102.546 209.698 102.045 209.769 101.497C209.84 100.949 210.342 100.563 210.89 100.634L217.355 101.474C217.902 101.545 218.289 102.047 218.217 102.594C218.146 103.142 217.645 103.528 217.097 103.457L210.632 102.618ZM224.46 104.836C223.919 104.723 223.572 104.194 223.684 103.653C223.797 103.112 224.326 102.765 224.867 102.878L231.305 104.216C231.846 104.329 232.193 104.858 232.081 105.399C231.969 105.94 231.439 106.287 230.898 106.174L224.46 104.836ZM237.386 108.025C236.838 107.954 236.452 107.452 236.523 106.905C236.594 106.357 237.096 105.971 237.643 106.042L244.108 106.881C244.656 106.952 245.042 107.454 244.971 108.002C244.9 108.549 244.398 108.936 243.851 108.865L237.386 108.025ZM174.471 84.1912C173.931 84.0788 173.584 83.5492 173.696 83.0085C173.808 82.4678 174.338 82.1206 174.879 82.233L181.317 83.5719C181.858 83.6843 182.205 84.2138 182.093 84.7545C181.98 85.2952 181.451 85.6424 180.91 85.53L174.471 84.1912ZM201.225 89.5988C200.684 89.4863 200.337 88.9568 200.45 88.4161C200.562 87.8754 201.092 87.5282 201.632 87.6406L208.071 88.9794C208.612 89.0919 208.959 89.6214 208.847 90.1621C208.734 90.7028 208.205 91.05 207.664 90.9376L201.225 89.5988ZM187.398 87.3807C186.85 87.3096 186.464 86.808 186.535 86.2603C186.606 85.7126 187.108 85.3263 187.655 85.3974L194.12 86.2369C194.668 86.308 195.054 86.8096 194.983 87.3573C194.912 87.905 194.41 88.2913 193.863 88.2202L187.398 87.3807ZM214.151 92.7883C213.604 92.7172 213.217 92.2156 213.288 91.6679C213.36 91.1202 213.861 90.7339 214.409 90.805L220.874 91.6445C221.421 91.7156 221.808 92.2172 221.737 92.7649C221.666 93.3126 221.164 93.6989 220.616 93.6278L214.151 92.7883ZM227.979 95.0064C227.438 94.8939 227.091 94.3644 227.203 93.8237C227.316 93.283 227.845 92.9358 228.386 93.0482L234.825 94.387C235.365 94.4995 235.713 95.029 235.6 95.5697C235.488 96.1104 234.958 96.4576 234.418 96.3452L227.979 95.0064ZM240.905 98.1959C240.357 98.1248 239.971 97.6231 240.042 97.0755C240.113 96.5278 240.615 96.1414 241.162 96.2126L247.627 97.0521C248.175 97.1232 248.561 97.6248 248.49 98.1725C248.419 98.7202 247.918 99.1065 247.37 99.0354L240.905 98.1959ZM204.744 79.7695C204.204 79.6571 203.856 79.1275 203.969 78.5868C204.081 78.0461 204.611 77.6989 205.152 77.8114L211.59 79.1502C212.131 79.2626 212.478 79.7921 212.366 80.3328C212.253 80.8735 211.724 81.2207 211.183 81.1083L204.744 79.7695ZM190.917 77.5515C190.369 77.4803 189.983 76.9787 190.054 76.431C190.125 75.8833 190.627 75.497 191.174 75.5681L197.639 76.4076C198.187 76.4787 198.573 76.9803 198.502 77.528C198.431 78.0757 197.93 78.4621 197.382 78.391L190.917 77.5515ZM217.671 82.959C217.123 82.8879 216.737 82.3863 216.808 81.8386C216.879 81.2909 217.38 80.9046 217.928 80.9757L224.393 81.8152C224.941 81.8863 225.327 82.3879 225.256 82.9356C225.185 83.4833 224.683 83.8696 224.135 83.7985L217.671 82.959ZM181.21 75.0313L181.617 73.0732L181.21 75.0313ZM181.21 75.0313L177.991 74.3619C176.685 74.0905 177.092 72.1324 178.398 72.4038L181.617 73.0732L184.837 73.7426C186.142 74.014 185.735 75.9721 184.429 75.7007L181.21 75.0313ZM234.717 85.8465L235.125 83.8883L234.717 85.8465ZM235.125 83.8883C236.43 84.1598 236.023 86.1179 234.717 85.8465L231.498 85.1771C230.193 84.9057 230.6 82.9475 231.905 83.2189L235.125 83.8883L238.344 84.5578C239.649 84.8292 239.242 86.7873 237.937 86.5159L234.717 85.8465C233.412 85.5751 233.819 83.6169 235.125 83.8883ZM244.424 88.3666C243.877 88.2955 243.49 87.7939 243.561 87.2462C243.632 86.6985 244.134 86.3122 244.682 86.3833L251.147 87.2228C251.694 87.2939 252.081 87.7955 252.01 88.3432C251.938 88.8909 251.437 89.2772 250.889 89.2061L244.424 88.3666ZM228.099 247.156C227.968 247.692 227.426 248.021 226.89 247.89C226.353 247.759 226.025 247.217 226.156 246.681L227.719 240.293C227.85 239.756 228.391 239.428 228.928 239.559C229.464 239.69 229.793 240.231 229.662 240.768L228.099 247.156ZM218.398 243.296C218.267 243.832 217.726 244.161 217.189 244.03C216.653 243.898 216.324 243.357 216.456 242.821L218.018 236.433C218.15 235.896 218.691 235.568 219.227 235.699C219.764 235.83 220.092 236.371 219.961 236.908L218.398 243.296ZM234.437 220.607C234.306 221.144 233.764 221.472 233.228 221.341C232.691 221.21 232.363 220.669 232.494 220.132L234.057 213.744C234.188 213.208 234.729 212.879 235.266 213.01C235.802 213.142 236.131 213.683 236 214.219L234.437 220.607ZM224.736 216.747C224.605 217.284 224.064 217.612 223.527 217.481C222.991 217.35 222.662 216.808 222.794 216.272L224.356 209.884C224.488 209.347 225.029 209.019 225.565 209.15C226.102 209.281 226.43 209.823 226.299 210.359L224.736 216.747ZM231.738 234.349C231.647 234.894 231.133 235.263 230.588 235.172C230.043 235.082 229.674 234.567 229.764 234.022L230.829 227.591C230.919 227.046 231.434 226.677 231.979 226.767C232.524 226.858 232.892 227.372 232.802 227.917L231.738 234.349ZM222.037 230.489C221.947 231.034 221.432 231.402 220.887 231.312C220.342 231.222 219.974 230.707 220.064 230.162L221.129 223.731C221.219 223.186 221.734 222.817 222.278 222.907C222.823 222.998 223.192 223.512 223.102 224.057L222.037 230.489ZM238.076 207.8C237.985 208.345 237.471 208.714 236.926 208.624C236.381 208.534 236.012 208.019 236.102 207.474L237.167 201.042C237.257 200.497 237.772 200.129 238.317 200.219C238.862 200.309 239.23 200.824 239.14 201.369L238.076 207.8ZM228.375 203.94C228.285 204.485 227.77 204.854 227.225 204.764C226.68 204.673 226.312 204.159 226.402 203.614L227.467 197.182C227.557 196.637 228.072 196.269 228.616 196.359C229.161 196.449 229.53 196.964 229.44 197.509L228.375 203.94ZM240.775 194.059C240.644 194.595 240.102 194.924 239.566 194.792C239.029 194.661 238.701 194.12 238.832 193.584L240.395 187.195C240.526 186.659 241.067 186.33 241.604 186.462C242.14 186.593 242.469 187.134 242.338 187.671L240.775 194.059ZM231.074 190.199C230.943 190.735 230.402 191.064 229.865 190.932C229.329 190.801 229 190.26 229.132 189.723L230.694 183.335C230.826 182.799 231.367 182.47 231.903 182.602C232.44 182.733 232.768 183.274 232.637 183.81L231.074 190.199ZM244.414 181.252C244.323 181.797 243.809 182.165 243.264 182.075C242.719 181.985 242.35 181.47 242.44 180.925L243.505 174.494C243.595 173.949 244.11 173.58 244.655 173.67C245.2 173.76 245.568 174.275 245.478 174.82L244.414 181.252ZM234.713 177.392C234.623 177.937 234.108 178.305 233.563 178.215C233.018 178.125 232.65 177.61 232.74 177.065L233.805 170.633C233.895 170.088 234.41 169.72 234.954 169.81C235.499 169.9 235.868 170.415 235.778 170.96L234.713 177.392ZM208.698 239.436C208.567 239.972 208.025 240.301 207.489 240.169C206.953 240.038 206.624 239.497 206.755 238.96L208.318 232.572C208.449 232.036 208.99 231.707 209.527 231.839C210.063 231.97 210.392 232.511 210.261 233.048L208.698 239.436ZM215.036 212.887C214.905 213.424 214.363 213.752 213.827 213.621C213.29 213.49 212.962 212.948 213.093 212.412L214.656 206.024C214.787 205.487 215.328 205.159 215.865 205.29C216.401 205.421 216.73 205.963 216.599 206.499L215.036 212.887ZM212.337 226.629C212.246 227.174 211.732 227.542 211.187 227.452C210.642 227.362 210.273 226.847 210.364 226.302L211.428 219.87C211.518 219.326 212.033 218.957 212.578 219.047C213.123 219.137 213.491 219.652 213.401 220.197L212.337 226.629ZM218.675 200.08C218.584 200.625 218.07 200.994 217.525 200.903C216.98 200.813 216.611 200.298 216.702 199.754L217.766 193.322C217.856 192.777 218.371 192.408 218.916 192.499C219.461 192.589 219.829 193.104 219.739 193.648L218.675 200.08ZM221.374 186.338C221.243 186.875 220.701 187.203 220.165 187.072C219.628 186.941 219.3 186.4 219.431 185.863L220.994 179.475C221.125 178.939 221.666 178.61 222.203 178.741C222.739 178.873 223.068 179.414 222.937 179.95L221.374 186.338ZM225.013 173.531C224.922 174.076 224.408 174.445 223.863 174.355C223.318 174.265 222.949 173.75 223.039 173.205L224.104 166.773C224.194 166.228 224.709 165.86 225.254 165.95C225.799 166.04 226.167 166.555 226.077 167.1L225.013 173.531ZM198.997 235.576C198.866 236.112 198.325 236.441 197.788 236.309C197.252 236.178 196.924 235.637 197.055 235.1L198.617 228.712C198.749 228.176 199.29 227.847 199.826 227.979C200.363 228.11 200.691 228.651 200.56 229.187L198.997 235.576ZM205.335 209.027C205.204 209.563 204.663 209.892 204.126 209.761C203.59 209.629 203.262 209.088 203.393 208.552L204.955 202.164C205.087 201.627 205.628 201.299 206.164 201.43C206.701 201.561 207.029 202.102 206.898 202.639L205.335 209.027ZM202.636 222.769C202.546 223.314 202.031 223.682 201.486 223.592C200.941 223.502 200.573 222.987 200.663 222.442L201.728 216.01C201.818 215.465 202.333 215.097 202.878 215.187C203.422 215.277 203.791 215.792 203.701 216.337L202.636 222.769ZM208.974 196.22C208.884 196.765 208.369 197.133 207.824 197.043C207.279 196.953 206.911 196.438 207.001 195.893L208.066 189.462C208.156 188.917 208.671 188.548 209.216 188.638C209.76 188.729 210.129 189.243 210.039 189.788L208.974 196.22ZM211.673 182.478C211.542 183.015 211.001 183.343 210.464 183.212C209.928 183.081 209.599 182.54 209.731 182.003L211.293 175.615C211.425 175.079 211.966 174.75 212.502 174.881C213.039 175.012 213.367 175.554 213.236 176.09L211.673 182.478ZM215.312 169.671C215.222 170.216 214.707 170.585 214.162 170.495C213.617 170.404 213.249 169.89 213.339 169.345L214.404 162.913C214.494 162.368 215.009 162 215.554 162.09C216.098 162.18 216.467 162.695 216.377 163.24L215.312 169.671ZM189.297 231.715C189.166 232.252 188.624 232.58 188.088 232.449C187.552 232.318 187.223 231.777 187.354 231.24L188.917 224.852C189.048 224.316 189.589 223.987 190.126 224.118C190.662 224.25 190.991 224.791 190.86 225.327L189.297 231.715ZM195.635 205.167C195.504 205.703 194.962 206.032 194.426 205.901C193.89 205.769 193.561 205.228 193.692 204.692L195.255 198.303C195.386 197.767 195.927 197.439 196.464 197.57C197 197.701 197.329 198.242 197.198 198.779L195.635 205.167ZM192.936 218.908C192.846 219.453 192.331 219.822 191.786 219.732C191.241 219.642 190.872 219.127 190.963 218.582L192.027 212.15C192.117 211.605 192.632 211.237 193.177 211.327C193.722 211.417 194.091 211.932 194 212.477L192.936 218.908ZM199.274 192.36C199.184 192.905 198.669 193.273 198.124 193.183C197.579 193.093 197.21 192.578 197.301 192.033L198.365 185.602C198.455 185.057 198.97 184.688 199.515 184.778C200.06 184.868 200.429 185.383 200.338 185.928L199.274 192.36ZM201.973 178.618C201.842 179.155 201.3 179.483 200.764 179.352C200.228 179.221 199.899 178.679 200.03 178.143L201.593 171.755C201.724 171.218 202.265 170.89 202.802 171.021C203.338 171.152 203.667 171.694 203.536 172.23L201.973 178.618ZM205.612 165.811C205.521 166.356 205.007 166.725 204.462 166.634C203.917 166.544 203.548 166.029 203.639 165.485L204.703 159.053C204.793 158.508 205.308 158.139 205.853 158.23C206.398 158.32 206.766 158.835 206.676 159.38L205.612 165.811ZM179.597 227.855C179.465 228.392 178.924 228.72 178.388 228.589C177.851 228.458 177.523 227.917 177.654 227.38L179.217 220.992C179.348 220.455 179.889 220.127 180.425 220.258C180.962 220.389 181.29 220.931 181.159 221.467L179.597 227.855ZM185.934 201.307C185.803 201.843 185.262 202.172 184.726 202.04C184.189 201.909 183.861 201.368 183.992 200.831L185.554 194.443C185.686 193.907 186.227 193.578 186.763 193.71C187.3 193.841 187.628 194.382 187.497 194.919L185.934 201.307ZM183.235 215.048C183.145 215.593 182.63 215.962 182.085 215.872C181.54 215.781 181.172 215.267 181.262 214.722L182.327 208.29C182.417 207.745 182.932 207.377 183.477 207.467C184.021 207.557 184.39 208.072 184.3 208.617L183.235 215.048ZM189.573 188.5C189.483 189.045 188.968 189.413 188.423 189.323C187.878 189.233 187.51 188.718 187.6 188.173L188.665 181.741C188.755 181.197 189.27 180.828 189.815 180.918C190.359 181.008 190.728 181.523 190.638 182.068L189.573 188.5ZM192.272 174.758C192.141 175.295 191.6 175.623 191.064 175.492C190.527 175.361 190.199 174.819 190.33 174.283L191.892 167.895C192.024 167.358 192.565 167.03 193.101 167.161C193.638 167.292 193.966 167.833 193.835 168.37L192.272 174.758ZM195.911 161.951C195.821 162.496 195.306 162.865 194.761 162.774C194.216 162.684 193.848 162.169 193.938 161.624L195.003 155.193C195.093 154.648 195.608 154.279 196.153 154.37C196.697 154.46 197.066 154.975 196.976 155.519L195.911 161.951ZM176.234 197.447C176.103 197.983 175.561 198.312 175.025 198.18C174.489 198.049 174.16 197.508 174.291 196.971L175.854 190.583C175.985 190.047 176.527 189.718 177.063 189.849C177.599 189.981 177.928 190.522 177.797 191.058L176.234 197.447ZM173.535 211.188C173.445 211.733 172.93 212.102 172.385 212.011C171.84 211.921 171.471 211.406 171.562 210.862L172.626 204.43C172.716 203.885 173.231 203.516 173.776 203.607C174.321 203.697 174.69 204.212 174.599 204.757L173.535 211.188ZM179.873 184.64C179.783 185.184 179.268 185.553 178.723 185.463C178.178 185.373 177.809 184.858 177.9 184.313L178.964 177.881C179.054 177.336 179.569 176.968 180.114 177.058C180.659 177.148 181.028 177.663 180.937 178.208L179.873 184.64ZM170.677 220.801L168.735 220.326L170.677 220.801ZM170.677 220.801L169.896 223.995C169.579 225.29 167.636 224.815 167.953 223.52L168.735 220.326L169.516 217.132C169.833 215.837 171.776 216.312 171.459 217.607L170.677 220.801ZM183.353 167.704L181.411 167.229L183.353 167.704ZM181.411 167.229C181.727 165.933 183.67 166.409 183.353 167.704L182.572 170.898C182.255 172.193 180.312 171.718 180.629 170.423L181.411 167.229L182.192 164.035C182.509 162.739 184.452 163.215 184.135 164.51L183.353 167.704C183.037 168.999 181.094 168.524 181.411 167.229ZM186.211 158.091C186.121 158.636 185.606 159.004 185.061 158.914C184.516 158.824 184.147 158.309 184.238 157.764L185.302 151.333C185.392 150.788 185.907 150.419 186.452 150.509C186.997 150.6 187.366 151.114 187.275 151.659L186.211 158.091Z" fill="#245852"/>
</g>
<path d="M455.61 256.846C380.843 243.612 351.42 202.726 362.483 139.74C373.499 77.0248 415.03 48.9773 489.797 62.2115C564.296 75.3981 593.988 116.331 583.019 178.776C572.003 241.492 530.108 270.032 455.61 256.846ZM462.739 216.259C505.664 223.857 528.991 205.875 535.236 170.318C541.435 135.031 525.593 110.397 482.668 102.799C439.744 95.2009 416.512 112.639 410.266 148.197C403.973 184.026 419.814 208.661 462.739 216.259Z" fill="#01996D"/>
<path d="M455.61 256.846C380.843 243.612 351.42 202.726 362.483 139.74C373.499 77.0248 415.03 48.9773 489.797 62.2115C564.296 75.3981 593.988 116.331 583.019 178.776C572.003 241.492 530.108 270.032 455.61 256.846ZM462.739 216.259C505.664 223.857 528.991 205.875 535.236 170.318C541.435 135.031 525.593 110.397 482.668 102.799C439.744 95.2009 416.512 112.639 410.266 148.197C403.973 184.026 419.814 208.661 462.739 216.259Z" fill="#01996D"/>
<path d="M384.568 88.2874C397.795 94.4133 417.85 102.887 433.827 109.102C421.345 116.863 413.687 130.273 410.489 148.41C404.185 184.161 420.107 208.752 463.222 216.354C506.338 223.956 529.758 206.024 536.014 170.544C540.921 142.714 532.003 121.519 506.76 110.103L542.247 79.8467C578.555 100.123 591.952 133.96 584.009 179.008C572.975 241.586 530.911 270.047 456.081 256.853C380.982 243.611 351.411 202.797 362.493 139.948C366.254 118.621 373.576 101.314 384.568 88.2874Z" fill="#01996D"/>
<path fill-rule="evenodd" clip-rule="evenodd" d="M485.159 24.6675C482.637 22.5248 480.861 19.4849 480.364 15.9502C479.288 8.29343 484.623 1.21407 492.28 0.13799C499.936 -0.938094 507.016 4.39658 508.092 12.0533C509.168 19.7101 503.833 26.7894 496.176 27.8655C495.346 27.9822 494.523 28.0235 493.713 27.9946C509.508 35.1865 515.68 45.0222 512.228 57.5017C507.895 73.1684 507.895 85.0017 512.228 93.0017L429.228 77.0017C434.081 70.4525 437.081 65.4525 438.228 62.0017C443.903 44.9229 443.961 33.5017 444.728 33.5017C445.728 33.5017 457.395 30.0017 479.728 23.0017C481.619 23.535 483.429 24.0902 485.159 24.6675Z" fill="#245852"/>
<path d="M507.715 57.0035C507.782 41.0034 496.649 26.6049 480.381 23.1469L475.49 22.1073C456.853 18.1458 438.533 30.043 434.571 48.6805L432.388 58.951C429.632 71.9162 437.908 84.6606 450.874 87.4164L463.201 90.0367L456.154 123.298C459.87 127.434 465.561 130.168 473.228 131.502C480.895 132.835 487.361 132.01 492.626 129.026L504.878 70.594C505.768 68.5302 506.469 66.3486 506.954 64.0659C507.453 61.7185 507.7 59.3762 507.714 57.067L507.728 57.0017L507.715 57.0035Z" fill="#FF9C99"/>
<mask id="mask2" style="mask-type:alpha" maskUnits="userSpaceOnUse" x="419" y="14" width="96" height="122">
<path d="M507.715 57.004C507.782 41.0039 496.649 26.6054 480.381 23.1474L475.49 22.1078C456.853 18.1463 438.533 30.0435 434.571 48.6809L432.388 58.9515C429.632 71.9167 437.908 84.6611 450.874 87.4169L463.201 90.0372L456.154 123.299C459.87 127.434 465.561 130.169 473.228 131.502C480.895 132.836 487.361 132.01 492.626 129.027L504.878 70.5944C505.768 68.5307 506.469 66.3491 506.954 64.0664C507.453 61.719 507.7 59.3767 507.714 57.0674L507.728 57.0022L507.715 57.004Z" fill="#FF9C99"/>
</mask>
<g mask="url(#mask2)">
<path fill-rule="evenodd" clip-rule="evenodd" d="M462.228 90.0018L481.228 89.5018L460.228 96.0018L462.228 90.0018ZM435.871 42.5646C439.828 32.9037 444.37 26.1858 449.498 22.4109C454.625 18.636 464.179 14.9755 478.161 11.4293L519.355 39.3937L504.728 79.0018L501.228 91.0018L497.048 71.3503L476.908 51.2873L462.281 48.1782L463.497 42.4606L453.749 46.3646L435.871 42.5646Z" fill="#245852"/>
</g>
<path d="M332.144 362.313L315.924 418.879L263.68 403.898L251.515 446.323L184.345 427.062L196.51 384.638L12.1651 331.778L28.3852 275.211L259.043 166.56L326.213 185.821L279.9 347.332L332.144 362.313ZM101.447 296.141L212.953 328.115L240.241 232.95L101.447 296.141Z" fill="#01996D"/>
<mask id="mask3" style="mask-type:alpha" maskUnits="userSpaceOnUse" x="0" y="113" width="379" height="349">
<path d="M332.144 362.313L315.924 418.879L263.68 403.898L251.515 446.323L184.345 427.062L196.51 384.638L12.1651 331.778L28.3852 275.211L259.043 166.56L326.213 185.821L279.9 347.332L332.144 362.313ZM101.447 296.141L212.953 328.115L240.241 232.95L101.447 296.141Z" fill="#56AAFF"/>
</mask>
<g mask="url(#mask3)">
<path fill-rule="evenodd" clip-rule="evenodd" d="M153.228 317.502L161.228 397.002L142.728 444.502L175.228 463.002L228.228 509.002L239.728 499.502C247.957 490.79 252.624 483.623 253.728 478.002C254.832 472.381 272.666 472.381 307.228 478.002L239.728 293.502L153.228 317.502Z" fill="#245852"/>
</g>
<path d="M878.453 326.353L909.636 376.257L863.546 405.058L886.933 442.486L827.674 479.515L804.287 442.087L641.653 543.712L610.47 493.808L684.066 249.694L743.325 212.665L832.362 355.154L878.453 326.353ZM674.911 453.517L773.284 392.046L720.822 308.089L674.911 453.517Z" fill="#01996D"/>
<mask id="mask4" style="mask-type:alpha" maskUnits="userSpaceOnUse" x="521" y="183" width="413" height="399">
<path d="M878.453 326.352L909.636 376.256L863.546 405.057L886.933 442.485L827.674 479.514L804.287 442.086L641.653 543.711L610.47 493.807L684.066 249.693L743.325 212.664L832.362 355.153L878.453 326.352ZM674.911 453.516L773.284 392.045L720.822 308.089L674.911 453.516Z" fill="#56AAFF"/>
</mask>
<g mask="url(#mask4)">
<path fill-rule="evenodd" clip-rule="evenodd" d="M640.229 427.501C638.895 427.501 630.729 456.001 615.729 513.001L642.229 553.001L733.729 513.501L719.229 420.501C667.895 425.168 641.562 427.501 640.229 427.501Z" fill="#245852"/>
</g>
<path fill-rule="evenodd" clip-rule="evenodd" d="M453.728 46.5017L430.228 41.5017C441.895 22.835 457.728 16.5017 477.728 22.5017C494.631 27.5724 481.323 27.074 458.228 35.0017C455.407 35.9702 453.907 39.8036 453.728 46.5017Z" fill="#245852"/>
<path d="M438.584 54.3708C438.68 54.858 438.728 55.413 438.728 56.0017C438.728 57.9335 438.205 59.5017 437.228 59.5017C436.251 59.5017 435.728 57.9335 435.728 56.0017C435.728 55.0685 435.85 54.22 436.087 53.5923C433.688 53.0312 431.621 53.0742 429.76 53.7077C429.237 53.8857 428.669 53.6062 428.491 53.0834C428.313 52.5606 428.593 51.9925 429.115 51.8145C431.938 50.8536 435.076 51.0253 438.75 52.2863C440.519 52.8935 442.56 54.4142 444.924 56.8431C445.31 57.2388 445.301 57.8719 444.905 58.2572C444.51 58.6424 443.877 58.6339 443.491 58.2382C441.566 56.2604 439.918 54.9725 438.584 54.3708ZM466.494 60.9786C466.649 61.55 466.728 62.2482 466.728 63.0017C466.728 64.9335 466.205 66.5017 465.228 66.5017C464.251 66.5017 463.728 64.9335 463.728 63.0017C463.728 61.9713 463.877 61.0442 464.164 60.4034C462.152 60.0525 460.378 60.1569 458.76 60.7077C458.237 60.8857 457.669 60.6062 457.491 60.0834C457.313 59.5606 457.593 58.9925 458.115 58.8145C460.938 57.8536 464.076 58.0253 467.75 59.2863C469.519 59.8935 471.56 61.4142 473.924 63.8431C474.31 64.2388 474.301 64.8719 473.905 65.2572C473.51 65.6424 472.877 65.6339 472.491 65.2382C470.326 63.014 468.512 61.6624 467.101 61.178C466.896 61.1077 466.694 61.0413 466.494 60.9786ZM453.578 58.0281L447.836 67.3036L451.424 68.0212C451.966 68.1295 452.317 68.6563 452.209 69.1979C452.1 69.7394 451.574 70.0906 451.032 69.9823L446.032 68.9823C445.348 68.8456 445.011 68.0684 445.378 67.4754L451.878 56.9754C452.169 56.5058 452.785 56.3608 453.255 56.6515C453.724 56.9422 453.869 57.5585 453.578 58.0281ZM444.824 75.4971C444.275 75.5503 443.786 75.1478 443.733 74.5981C443.68 74.0484 444.082 73.5596 444.632 73.5064L460.132 72.0064C460.682 71.9532 461.17 72.3557 461.224 72.9054C461.277 73.4551 460.874 73.9439 460.324 73.9971L444.824 75.4971Z" fill="#245852"/>
<path fill-rule="evenodd" clip-rule="evenodd" d="M487.44 64.2589C492.574 59.1249 497.51 58.73 502.249 63.0741C509.358 69.5903 501.311 81.7721 492.831 81.5908C487.178 81.4699 485.381 75.6926 487.44 64.2589Z" fill="#FF9C99"/>
<path fill-rule="evenodd" clip-rule="evenodd" d="M174.173 317.053L165.868 337.222C164.274 341.094 160.695 343.789 156.532 344.252C155.985 344.312 155.431 344.278 154.896 344.15C152.33 343.538 150.747 340.961 151.36 338.396L165.782 278.002L168.017 277.035C179.142 272.224 191.527 271.153 203.313 273.981C227.722 279.839 241.545 286.679 244.782 294.502C248.571 303.658 256.099 326.423 267.365 362.797C268.397 366.131 266.532 369.67 263.198 370.703C263.143 370.72 263.088 370.736 263.032 370.752C259.495 371.742 255.788 369.866 254.492 366.429L237.544 321.497C236.294 318.184 232.598 316.508 229.282 317.752C225.885 319.026 224.022 322.681 224.988 326.178L235.472 364.137C236.666 368.459 234.129 372.932 229.807 374.125C229.633 374.173 229.458 374.215 229.282 374.252C224.502 375.236 219.78 372.338 218.492 367.631L208.097 329.636C207.159 326.207 203.619 324.187 200.189 325.126C200.052 325.163 199.916 325.205 199.782 325.252C196.073 326.536 193.909 330.388 194.741 334.224L203.184 373.136C203.826 376.094 201.948 379.012 198.99 379.654C198.429 379.776 197.853 379.809 197.282 379.752C192.782 379.302 189.046 376.079 187.941 371.693L174.173 317.053ZM687.943 405.744C696.369 403.885 705.175 406.165 711.64 411.878L723.095 422.002L712.095 448.502L688.064 508.876C686.477 512.864 682.036 514.901 677.978 513.502C677.889 513.471 677.8 513.438 677.712 513.404C673.913 511.929 672.029 507.652 673.504 503.853L688.686 464.759C688.773 464.537 688.842 464.309 688.895 464.076C689.491 461.455 687.849 458.847 685.228 458.252C685.203 458.246 685.179 458.241 685.154 458.235C682.148 457.595 679.193 459.513 678.553 462.518L669.895 503.173C669.872 503.28 669.847 503.386 669.82 503.492C668.762 507.593 664.579 510.06 660.478 509.002C656.111 507.875 653.356 503.565 654.167 499.128L661.68 458.008C662.195 455.19 660.439 452.455 657.662 451.752C657.43 451.693 657.194 451.654 656.955 451.634C654.585 451.44 652.507 453.204 652.313 455.574L648.987 496.229C648.98 496.307 648.973 496.386 648.964 496.464C648.426 501.441 643.955 505.04 638.978 504.502C633.831 503.945 630.085 499.359 630.568 494.205C633.898 458.65 637.407 436.415 641.095 427.502C644.563 419.122 660.179 411.869 687.943 405.744Z" fill="#FF9C99"/>
<path fill-rule="evenodd" clip-rule="evenodd" d="M442.728 700.502L334.728 771.502L256.728 553.002L442.728 700.502ZM716.228 747.002L556.228 737.502L525.228 474.002L611.228 494.002L716.228 747.002Z" fill="#FF567B"/>
<path d="M501.808 261.892C501.592 261.384 501.829 260.797 502.337 260.581C502.846 260.365 503.433 260.603 503.649 261.111C512.562 282.11 524.577 292.502 539.728 292.502C540.28 292.502 540.728 292.949 540.728 293.502C540.728 294.054 540.28 294.502 539.728 294.502C523.656 294.502 511.004 283.56 501.808 261.892ZM485.659 332.599C486.157 332.837 486.369 333.434 486.131 333.932C485.893 334.431 485.296 334.642 484.797 334.404L462.797 323.904C462.299 323.666 462.088 323.069 462.326 322.571C462.564 322.072 463.16 321.861 463.659 322.099L485.659 332.599ZM423.243 167.175C423.147 166.632 423.511 166.113 424.054 166.017C424.598 165.921 425.117 166.284 425.213 166.828L428.213 183.828C428.309 184.372 427.946 184.89 427.402 184.986C426.858 185.082 426.339 184.719 426.243 184.175L423.243 167.175Z" fill="#245852"/>
<path d="M218.728 346.002C224.527 346.002 229.228 341.301 229.228 335.502C229.228 329.703 224.527 325.002 218.728 325.002C212.929 325.002 208.228 329.703 208.228 335.502C208.228 341.301 212.929 346.002 218.728 346.002Z" fill="#FFE694"/>
<path fill-rule="evenodd" clip-rule="evenodd" d="M102.615 505.675L115.895 513.413L127.228 505.002L124.561 518.46L133.228 522.161L125.895 527.207L128.895 539.992L117.561 532.591L109.228 541.002L107.561 529.226C100.672 526.086 97.228 524.516 97.228 524.516C97.228 524.516 100.672 522.497 107.561 518.46L102.615 505.675ZM750.479 555.991L770.304 548.073L770.789 528.477L783.238 542.903L794.699 536.582L793.952 548.924L810.51 556.573L792.718 562.647L794.798 578.96L780.485 570.715C771.157 575.569 766.494 577.997 766.494 577.997C766.494 577.997 767.229 572.501 768.701 561.509L750.479 555.991ZM425.308 515.002L445.228 526.502L462.228 514.002L458.228 534.002L471.228 539.502L460.228 547.002L464.728 566.002L447.728 555.002L435.228 567.502L432.728 550.002C422.395 545.335 417.228 543.002 417.228 543.002C417.228 543.002 422.395 540.002 432.728 534.002L425.308 515.002ZM346.764 271.693L360.413 279.647L372.061 271.002L369.321 284.833L378.228 288.637L370.691 293.824L373.774 306.964L362.126 299.357L353.561 308.002L351.848 295.899C344.768 292.671 341.228 291.058 341.228 291.058C341.228 291.058 344.768 288.983 351.848 284.833L346.764 271.693Z" fill="#01996D"/>
</svg>
